<?xml version="1.0" encoding="utf-8"?>
<!-- Generator: Adobe Illustrator 25.2.2, SVG Export Plug-In . SVG Version: 6.00 Build 0)  -->
<svg version="1.1" xmlns="http://www.w3.org/2000/svg" xmlns:xlink="http://www.w3.org/1999/xlink" x="0px" y="0px"
	 viewBox="0 0 400 300" style="enable-background:new 0 0 400 300;" xml:space="preserve">
<style type="text/css">
	.st0{fill:#E7EAEB;}
	.st1{fill:#414042;}
	.st2{enable-background:new    ;}
	.st3{fill:#A8AAAB;}
	.st4{fill:#DDDFE0;}
	.st5{fill:#5A80E0;}
	.st6{fill:#9BB1DD;}
	.st7{fill:#6F93DD;}
	.st8{fill:#83A3DB;}
	.st9{fill:none;stroke:#000000;stroke-linecap:round;stroke-miterlimit:10;}
	.st10{fill:#4C4C4C;}
	.st11{fill:#A6B9DD;}
	.st12{fill:#90AADD;}
	.st13{fill:#85A2DD;}
	.st14{fill:#4376DD;}
	.st15{fill:#4E7EDD;}
	.st16{stroke:#FFFFFF;stroke-width:2;stroke-linecap:round;stroke-linejoin:round;stroke-miterlimit:10;}
	.st17{fill:#A9B8E0;stroke:#2C6FDB;stroke-linecap:round;stroke-miterlimit:10;}
	.st18{fill:#A0A0A0;stroke:#2C6FDB;stroke-linecap:round;stroke-miterlimit:10;}
</style>
<g id="laptop">
	<g>
		<g>
			<path class="st0" d="M288.23,106.32c0-0.01,0-0.02,0-0.03c0-0.02,0-0.05,0-0.07c0-0.03,0-0.06,0-0.09c0-0.02,0-0.04-0.01-0.07
				c0-0.03,0-0.05-0.01-0.08c0-0.02,0-0.03,0-0.05c0-0.04-0.01-0.07-0.01-0.11c0-0.02,0-0.04-0.01-0.06c0-0.01,0-0.01,0-0.02
				c-0.01-0.07-0.02-0.13-0.03-0.2c0,0,0,0,0,0c0-0.01,0-0.02,0-0.03c-0.01-0.06-0.02-0.11-0.03-0.17c0-0.01,0-0.02-0.01-0.03
				c-0.01-0.03-0.01-0.05-0.02-0.08c-0.01-0.03-0.01-0.06-0.02-0.1c0-0.02-0.01-0.04-0.01-0.05c-0.01-0.03-0.01-0.06-0.02-0.09
				c-0.01-0.02-0.01-0.04-0.02-0.07c-0.01-0.03-0.01-0.05-0.02-0.08c-0.01-0.03-0.01-0.06-0.02-0.09c0-0.01-0.01-0.03-0.01-0.04
				c-0.01-0.04-0.02-0.08-0.03-0.11c-0.01-0.02-0.01-0.05-0.02-0.07c0-0.01,0-0.01-0.01-0.02c-0.02-0.07-0.04-0.14-0.07-0.2
				c0,0,0,0,0,0c0-0.01,0-0.01-0.01-0.02c-0.02-0.06-0.04-0.12-0.06-0.18c0-0.01-0.01-0.02-0.01-0.03
				c-0.01-0.02-0.02-0.04-0.03-0.07c-0.01-0.03-0.02-0.06-0.04-0.1c-0.01-0.02-0.02-0.04-0.02-0.06c-0.01-0.02-0.02-0.05-0.03-0.07
				c-0.01-0.02-0.01-0.04-0.02-0.06c-0.02-0.04-0.03-0.07-0.05-0.11c-0.01-0.02-0.02-0.04-0.02-0.06c0-0.01-0.01-0.01-0.01-0.02
				c-0.03-0.06-0.06-0.13-0.09-0.19c0,0,0-0.01,0-0.01c-0.01-0.02-0.02-0.04-0.03-0.05c-0.02-0.05-0.05-0.1-0.07-0.15
				c0-0.01-0.01-0.02-0.01-0.02c-0.02-0.04-0.04-0.08-0.06-0.12c-0.02-0.03-0.03-0.06-0.05-0.1c0-0.01-0.01-0.01-0.01-0.02
				c-0.05-0.1-0.11-0.2-0.17-0.3c0-0.01-0.01-0.02-0.01-0.03c-0.01-0.01-0.01-0.02-0.02-0.03c-0.08-0.14-0.17-0.28-0.26-0.41
				c0-0.01-0.01-0.02-0.01-0.02c-0.01-0.01-0.02-0.02-0.03-0.04c-0.07-0.11-0.15-0.21-0.22-0.32l0,0c0,0,0,0,0-0.01
				c-0.05-0.07-0.11-0.14-0.16-0.21c0,0,0-0.01-0.01-0.01c-0.04-0.05-0.08-0.1-0.13-0.15c-0.01-0.01-0.02-0.02-0.03-0.03
				c0,0,0,0,0,0c-0.05-0.06-0.1-0.12-0.15-0.18c0,0-0.01-0.01-0.01-0.01c-0.02-0.02-0.03-0.03-0.05-0.05
				c-0.03-0.04-0.07-0.07-0.1-0.11c-0.01-0.01-0.01-0.01-0.02-0.02c-0.02-0.02-0.04-0.05-0.07-0.07c-0.02-0.03-0.05-0.05-0.07-0.08
				c-0.01-0.01-0.02-0.02-0.03-0.03c-0.02-0.02-0.05-0.05-0.07-0.07c-0.02-0.02-0.04-0.04-0.06-0.06c-0.01-0.01-0.02-0.02-0.04-0.03
				c-0.03-0.03-0.05-0.05-0.08-0.07c-0.02-0.02-0.04-0.04-0.06-0.05c-0.01-0.01-0.03-0.03-0.04-0.04c-0.03-0.02-0.05-0.05-0.08-0.07
				c-0.02-0.01-0.03-0.03-0.05-0.04c-0.02-0.02-0.04-0.03-0.05-0.04c-0.03-0.02-0.05-0.04-0.08-0.07c-0.01-0.01-0.03-0.02-0.04-0.03
				c-0.02-0.02-0.05-0.03-0.07-0.05c-0.02-0.02-0.05-0.04-0.07-0.06c-0.01-0.01-0.02-0.02-0.03-0.02c-0.03-0.02-0.06-0.04-0.09-0.07
				c-0.02-0.01-0.04-0.03-0.06-0.04c-0.01,0-0.01-0.01-0.02-0.01c-0.06-0.04-0.11-0.07-0.17-0.11c0,0,0,0,0,0c0,0-0.01,0-0.01-0.01
				c-0.05-0.03-0.1-0.06-0.15-0.09c-0.01-0.01-0.03-0.02-0.04-0.02l-91.96-53.09c-0.04-0.02-0.08-0.05-0.13-0.07
				c-0.02-0.01-0.03-0.02-0.05-0.02c-0.02-0.01-0.04-0.02-0.06-0.03c-0.02-0.01-0.03-0.02-0.05-0.03c-0.03-0.01-0.05-0.03-0.08-0.04
				c-0.02-0.01-0.04-0.02-0.06-0.03c-0.01,0-0.02-0.01-0.02-0.01c-0.05-0.02-0.11-0.05-0.16-0.07l0,0l0,0
				c-0.05-0.02-0.11-0.04-0.16-0.06c-0.01,0-0.01,0-0.02-0.01c-0.02-0.01-0.04-0.01-0.06-0.02c-0.03-0.01-0.05-0.02-0.08-0.03
				c-0.01,0-0.03-0.01-0.04-0.01c-0.02-0.01-0.05-0.01-0.07-0.02c-0.02,0-0.04-0.01-0.05-0.01c-0.02,0-0.04-0.01-0.06-0.01
				c-0.02-0.01-0.05-0.01-0.07-0.02c-0.01,0-0.02-0.01-0.04-0.01c-0.02,0-0.04-0.01-0.06-0.01c-0.03,0-0.05-0.01-0.08-0.01
				c-0.01,0-0.02,0-0.03,0c-0.02,0-0.04,0-0.07-0.01c-0.03,0-0.06-0.01-0.08-0.01c-0.01,0-0.02,0-0.02,0c-0.02,0-0.04,0-0.06,0
				c-0.03,0-0.07,0-0.1,0c-0.01,0-0.02,0-0.03,0c-0.01,0-0.03,0-0.04,0c-0.04,0-0.08,0-0.12,0.01c-0.01,0-0.03,0-0.04,0
				c-0.01,0-0.02,0-0.03,0c-0.06,0.01-0.12,0.02-0.18,0.03c-0.01,0-0.01,0-0.02,0c0,0,0,0,0,0c-0.01,0-0.02,0.01-0.04,0.01
				c-0.04,0.01-0.07,0.02-0.11,0.03c-0.02,0.01-0.04,0.01-0.05,0.02c-0.02,0.01-0.05,0.01-0.07,0.02c-0.01,0-0.01,0-0.02,0.01
				c-0.04,0.01-0.07,0.03-0.1,0.04c-0.02,0.01-0.03,0.01-0.05,0.02c-0.05,0.02-0.1,0.05-0.15,0.08l-0.99,0.58
				c0.05-0.03,0.1-0.05,0.15-0.08c0.02-0.01,0.03-0.01,0.05-0.02c0.03-0.01,0.07-0.03,0.1-0.04c0.03-0.01,0.06-0.02,0.09-0.03
				c0.02-0.01,0.04-0.01,0.05-0.02c0.04-0.01,0.07-0.02,0.11-0.03c0.01,0,0.02-0.01,0.04-0.01c0.01,0,0.01,0,0.02,0
				c0.06-0.01,0.12-0.02,0.18-0.03c0.02,0,0.04,0,0.06-0.01c0.04,0,0.08,0,0.12-0.01c0.02,0,0.05,0,0.07,0c0.03,0,0.07,0,0.1,0
				c0.03,0,0.05,0,0.08,0c0.03,0,0.06,0.01,0.09,0.01c0.03,0,0.06,0.01,0.09,0.01c0.03,0,0.05,0.01,0.08,0.01
				c0.03,0.01,0.07,0.01,0.1,0.02c0.02,0,0.05,0.01,0.07,0.02c0.04,0.01,0.07,0.02,0.11,0.03c0.02,0.01,0.05,0.01,0.07,0.02
				c0.04,0.01,0.08,0.02,0.12,0.04c0.02,0.01,0.04,0.01,0.06,0.02c0.06,0.02,0.12,0.04,0.18,0.07c0,0,0,0,0,0l0,0
				c0.06,0.02,0.12,0.05,0.18,0.08c0.02,0.01,0.04,0.02,0.06,0.03c0.04,0.02,0.09,0.04,0.13,0.06c0.02,0.01,0.04,0.02,0.06,0.03
				c0.06,0.03,0.11,0.06,0.17,0.09l91.96,53.09c0.06,0.04,0.13,0.08,0.19,0.12c0,0,0.01,0.01,0.01,0.01
				c0.06,0.04,0.12,0.08,0.18,0.12c0.02,0.01,0.04,0.03,0.06,0.04c0.04,0.03,0.08,0.06,0.12,0.09c0.02,0.02,0.05,0.04,0.07,0.06
				c0.04,0.03,0.07,0.06,0.11,0.09c0.03,0.02,0.05,0.04,0.08,0.07c0.03,0.03,0.07,0.06,0.1,0.09c0.03,0.02,0.05,0.05,0.08,0.07
				c0.03,0.03,0.07,0.06,0.1,0.09c0.03,0.02,0.05,0.05,0.08,0.07c0.03,0.03,0.07,0.06,0.1,0.1c0.02,0.02,0.05,0.05,0.07,0.07
				c0.03,0.03,0.07,0.07,0.1,0.11c0.02,0.02,0.05,0.05,0.07,0.07c0.04,0.04,0.08,0.08,0.12,0.13c0.02,0.02,0.03,0.04,0.05,0.05
				c0.05,0.06,0.11,0.12,0.16,0.19c0.01,0.01,0.02,0.02,0.02,0.03c0.04,0.05,0.09,0.11,0.13,0.16c0.06,0.07,0.11,0.14,0.17,0.22
				c0,0,0,0,0,0c0.08,0.1,0.15,0.21,0.22,0.32c0.01,0.02,0.03,0.04,0.04,0.06c0.09,0.14,0.18,0.27,0.26,0.41
				c0.01,0.02,0.02,0.04,0.03,0.05c0.06,0.1,0.12,0.2,0.17,0.3c0.02,0.04,0.04,0.07,0.06,0.11c0.02,0.04,0.04,0.08,0.06,0.12
				c0.03,0.06,0.05,0.11,0.08,0.17c0.01,0.02,0.02,0.04,0.03,0.06c0.03,0.07,0.07,0.15,0.1,0.22c0.01,0.02,0.02,0.04,0.02,0.06
				c0.02,0.05,0.05,0.11,0.07,0.16c0.01,0.03,0.02,0.05,0.03,0.08c0.02,0.05,0.04,0.11,0.06,0.16c0.01,0.02,0.02,0.05,0.03,0.07
				c0.03,0.07,0.05,0.14,0.07,0.21c0,0.01,0,0.01,0.01,0.02c0.03,0.08,0.05,0.15,0.07,0.23c0.01,0.02,0.01,0.05,0.02,0.07
				c0.02,0.05,0.03,0.1,0.04,0.16c0.01,0.03,0.02,0.06,0.02,0.09c0.01,0.05,0.02,0.1,0.04,0.15c0.01,0.03,0.01,0.06,0.02,0.09
				c0.01,0.05,0.02,0.1,0.03,0.15c0.01,0.03,0.01,0.05,0.02,0.08c0.01,0.07,0.02,0.13,0.03,0.2c0,0.01,0,0.02,0.01,0.03
				c0.01,0.07,0.02,0.15,0.03,0.22c0,0.02,0,0.04,0.01,0.06c0.01,0.05,0.01,0.11,0.02,0.16c0,0.03,0,0.05,0.01,0.08
				c0,0.05,0.01,0.1,0.01,0.15c0,0.02,0,0.05,0,0.07c0,0.07,0,0.14,0,0.21l-0.2,71.55c0,0.07,0,0.15-0.01,0.22c0,0.02,0,0.04,0,0.06
				c0,0.05-0.01,0.1-0.01,0.14c0,0.03-0.01,0.05-0.01,0.08c0,0.04-0.01,0.08-0.01,0.12c0,0.03-0.01,0.06-0.01,0.09
				c-0.01,0.04-0.01,0.07-0.02,0.11c-0.01,0.03-0.01,0.06-0.02,0.09c-0.01,0.03-0.01,0.06-0.02,0.09c-0.01,0.04-0.02,0.07-0.03,0.11
				c-0.01,0.03-0.02,0.06-0.02,0.08c-0.01,0.04-0.03,0.08-0.04,0.13c-0.01,0.02-0.02,0.04-0.02,0.07c-0.03,0.07-0.05,0.14-0.08,0.2
				c0,0.01-0.01,0.01-0.01,0.02c-0.04,0.09-0.09,0.17-0.13,0.24c0,0.01-0.01,0.01-0.01,0.02c-0.04,0.06-0.08,0.12-0.13,0.18
				c-0.01,0.01-0.02,0.03-0.03,0.04c-0.04,0.05-0.09,0.1-0.14,0.15c0,0-0.01,0.01-0.01,0.01c-0.05,0.05-0.1,0.09-0.16,0.14
				c-0.01,0.01-0.03,0.02-0.04,0.03c-0.06,0.04-0.11,0.08-0.17,0.12l0.99-0.58c0.06-0.03,0.12-0.07,0.17-0.12
				c0.01-0.01,0.03-0.02,0.04-0.03c0.05-0.04,0.11-0.09,0.16-0.14c0,0,0.01-0.01,0.01-0.01c0.05-0.05,0.09-0.1,0.14-0.15
				c0.01-0.01,0.02-0.03,0.03-0.04c0.04-0.06,0.09-0.12,0.13-0.18c0,0,0,0,0-0.01c0,0,0-0.01,0.01-0.01
				c0.05-0.08,0.09-0.16,0.13-0.24c0,0,0.01-0.01,0.01-0.01c0,0,0,0,0-0.01c0.03-0.06,0.06-0.13,0.08-0.2c0-0.01,0-0.01,0.01-0.02
				c0.01-0.02,0.01-0.03,0.02-0.05c0.01-0.04,0.03-0.08,0.04-0.13c0-0.01,0.01-0.02,0.01-0.03c0-0.02,0.01-0.03,0.01-0.05
				c0.01-0.04,0.02-0.07,0.03-0.11c0-0.01,0.01-0.03,0.01-0.04c0-0.02,0.01-0.03,0.01-0.05c0.01-0.03,0.01-0.06,0.02-0.09
				c0-0.02,0.01-0.03,0.01-0.05c0-0.02,0.01-0.04,0.01-0.06c0-0.03,0.01-0.06,0.01-0.09c0-0.01,0-0.03,0.01-0.04
				c0-0.02,0.01-0.05,0.01-0.08c0-0.03,0.01-0.05,0.01-0.08c0-0.01,0-0.02,0-0.03c0-0.04,0-0.07,0.01-0.11c0-0.02,0-0.04,0-0.06
				c0,0,0-0.01,0-0.01c0-0.06,0-0.13,0-0.19c0,0,0-0.01,0-0.01l0.2-71.55C288.23,106.44,288.23,106.38,288.23,106.32z"/>
			<path d="M283.32,100.28c2.17,1.26,3.93,4.3,3.92,6.8l-0.2,71.55c-0.01,2.5-1.77,3.51-3.95,2.25l-91.96-53.09
				c-2.17-1.25-3.93-4.3-3.92-6.8l0.2-71.55c0.01-2.5,1.78-3.5,3.95-2.25L283.32,100.28z M283.32,169l0.18-64.23l-92.37-53.33
				l-0.18,64.23L283.32,169"/>
			<g>
				<polygon class="st1" points="283.51,104.76 283.33,169 190.96,115.67 191.14,51.43 				"/>
			</g>
		</g>
		<g class="st2">
			<g>
				<polygon class="st3" points="197.75,127.79 197.74,131.49 196.54,132.18 196.55,128.48 				"/>
			</g>
			<path class="st3" d="M284.01,179.03c0,0.03,0,0.06-0.01,0.08c0,0.02-0.01,0.05-0.01,0.07c0,0.03-0.01,0.06-0.01,0.08
				c0,0.02-0.01,0.05-0.02,0.07c-0.01,0.03-0.01,0.05-0.02,0.08c-0.01,0.02-0.01,0.05-0.02,0.07c-0.01,0.03-0.02,0.05-0.03,0.08
				c-0.01,0.02-0.02,0.05-0.03,0.07c-0.01,0.03-0.02,0.06-0.04,0.08c-0.01,0.02-0.02,0.05-0.03,0.07c-0.01,0.03-0.03,0.06-0.04,0.08
				c-0.01,0.02-0.02,0.04-0.04,0.07c-0.02,0.03-0.04,0.07-0.06,0.1c-0.01,0.02-0.03,0.04-0.04,0.06c-0.02,0.04-0.05,0.07-0.08,0.11
				c-0.01,0.02-0.02,0.03-0.03,0.05c-0.04,0.06-0.09,0.11-0.14,0.17c-0.01,0.01-0.03,0.03-0.04,0.04c-0.04,0.04-0.08,0.08-0.13,0.13
				c-0.02,0.02-0.04,0.04-0.06,0.06c-0.03,0.02-0.05,0.05-0.08,0.07c-0.03,0.02-0.05,0.04-0.08,0.06c-0.03,0.02-0.06,0.05-0.09,0.07
				c-0.03,0.02-0.05,0.04-0.08,0.06c-0.03,0.02-0.06,0.04-0.09,0.07c-0.03,0.02-0.06,0.04-0.09,0.06c-0.03,0.02-0.07,0.04-0.1,0.06
				c-0.04,0.03-0.08,0.05-0.13,0.08l-61.86,35.95c-0.12,0.07-0.25,0.13-0.37,0.2c-0.03,0.02-0.07,0.03-0.1,0.05
				c-0.12,0.05-0.23,0.1-0.36,0.15c-0.02,0.01-0.03,0.01-0.05,0.02c-0.13,0.05-0.26,0.09-0.4,0.14c-0.09,0.03-0.19,0.06-0.29,0.08
				c-0.07,0.02-0.14,0.04-0.22,0.06c-0.1,0.02-0.2,0.04-0.31,0.07c-0.07,0.02-0.15,0.03-0.22,0.05c-0.03,0.01-0.06,0.01-0.09,0.02
				c-0.13,0.02-0.26,0.04-0.38,0.05c-0.04,0-0.07,0.01-0.11,0.01c-0.15,0.02-0.3,0.03-0.45,0.04c-0.03,0-0.06,0-0.08,0
				c-0.1,0.01-0.2,0.01-0.3,0.01c-0.1,0-0.2,0-0.3,0c-0.08,0-0.17,0-0.25-0.01c-0.09,0-0.19-0.01-0.28-0.02
				c-0.09-0.01-0.17-0.01-0.26-0.02c-0.09-0.01-0.18-0.02-0.28-0.03c-0.08-0.01-0.17-0.02-0.25-0.04c-0.1-0.02-0.2-0.03-0.29-0.05
				c-0.1-0.02-0.2-0.04-0.31-0.06c-0.02-0.01-0.05-0.01-0.07-0.02c-0.14-0.03-0.28-0.07-0.42-0.11c-0.04-0.01-0.08-0.02-0.12-0.04
				c-0.11-0.04-0.23-0.07-0.34-0.12c-0.03-0.01-0.06-0.02-0.1-0.04c-0.1-0.04-0.2-0.08-0.29-0.13c-0.05-0.02-0.1-0.04-0.14-0.06
				c-0.14-0.07-0.28-0.14-0.41-0.21l-91.96-53.09c-1.09-0.63-1.64-1.46-1.64-2.29l-0.01,3.7c0,0.83,0.54,1.66,1.64,2.29l91.96,53.09
				c0.13,0.08,0.27,0.15,0.41,0.21c0.05,0.02,0.1,0.04,0.14,0.06c0.08,0.04,0.16,0.08,0.25,0.11c0.01,0.01,0.03,0.01,0.04,0.02
				c0.03,0.01,0.06,0.02,0.1,0.04c0.11,0.04,0.22,0.08,0.34,0.12c0.04,0.01,0.08,0.02,0.12,0.04c0.03,0.01,0.05,0.02,0.08,0.02
				c0.11,0.03,0.23,0.06,0.34,0.09c0.02,0.01,0.05,0.01,0.07,0.02c0.06,0.01,0.11,0.03,0.17,0.04c0.05,0.01,0.09,0.02,0.14,0.02
				c0.1,0.02,0.2,0.04,0.29,0.05c0.04,0.01,0.08,0.01,0.12,0.02c0.04,0.01,0.09,0.01,0.13,0.01c0.09,0.01,0.18,0.02,0.28,0.03
				c0.04,0,0.09,0.01,0.13,0.01c0.04,0,0.08,0,0.12,0.01c0.09,0.01,0.19,0.01,0.28,0.02c0.05,0,0.09,0.01,0.14,0.01
				c0.04,0,0.08,0,0.11,0c0.1,0,0.2,0,0.3,0c0.05,0,0.1,0,0.15,0c0.05,0,0.1-0.01,0.15-0.01c0.03,0,0.06,0,0.08,0
				c0.13-0.01,0.25-0.02,0.38-0.03c0.02,0,0.05-0.01,0.07-0.01c0.04,0,0.07-0.01,0.11-0.01c0.13-0.02,0.26-0.03,0.38-0.05
				c0.03-0.01,0.06-0.01,0.09-0.02c0.02,0,0.03,0,0.05-0.01c0.06-0.01,0.12-0.03,0.18-0.04c0.1-0.02,0.21-0.04,0.31-0.07
				c0.07-0.02,0.15-0.04,0.22-0.06c0.1-0.03,0.19-0.05,0.29-0.08c0.02-0.01,0.04-0.01,0.06-0.02c0.11-0.04,0.23-0.08,0.34-0.12
				c0.02-0.01,0.03-0.01,0.05-0.02c0.12-0.05,0.24-0.1,0.36-0.15c0.03-0.02,0.07-0.03,0.1-0.05c0.13-0.06,0.25-0.13,0.37-0.2
				l61.86-35.95c0.02-0.01,0.05-0.03,0.07-0.04c0.02-0.01,0.04-0.03,0.06-0.04c0.03-0.02,0.07-0.04,0.1-0.06
				c0.03-0.02,0.06-0.04,0.09-0.06c0.03-0.02,0.06-0.04,0.09-0.07c0.03-0.02,0.06-0.04,0.08-0.06c0.03-0.02,0.06-0.05,0.09-0.07
				c0.03-0.02,0.05-0.04,0.08-0.06c0.03-0.02,0.05-0.05,0.08-0.07c0.01-0.01,0.02-0.02,0.03-0.03c0.01-0.01,0.02-0.02,0.03-0.03
				c0.04-0.04,0.09-0.08,0.13-0.13c0.01-0.01,0.03-0.03,0.04-0.04c0.05-0.06,0.1-0.11,0.14-0.17c0,0,0,0,0.01-0.01
				c0.01-0.01,0.02-0.03,0.03-0.04c0.03-0.04,0.05-0.07,0.08-0.11c0.01-0.02,0.03-0.04,0.04-0.06c0.02-0.03,0.04-0.07,0.06-0.1
				c0.01-0.01,0.01-0.02,0.02-0.03c0.01-0.01,0.01-0.03,0.02-0.04c0.01-0.03,0.03-0.06,0.04-0.08c0.01-0.02,0.02-0.05,0.03-0.07
				c0.01-0.03,0.02-0.06,0.04-0.08c0.01-0.01,0.01-0.03,0.02-0.04c0-0.01,0.01-0.02,0.01-0.03c0.01-0.03,0.02-0.05,0.03-0.08
				c0.01-0.02,0.01-0.05,0.02-0.07c0.01-0.03,0.01-0.05,0.02-0.08c0-0.01,0.01-0.03,0.01-0.04c0-0.01,0-0.02,0-0.03
				c0.01-0.03,0.01-0.06,0.01-0.08c0-0.02,0.01-0.05,0.01-0.07c0-0.03,0-0.06,0.01-0.08c0-0.02,0-0.03,0-0.05c0-0.02,0-0.03,0-0.05
				l0.01-3.7C284.02,178.97,284.01,179,284.01,179.03z"/>
			<g>
				<path class="st0" d="M282.38,176.65c2.17,1.25,2.18,3.29,0.03,4.55l-61.86,35.95c-2.16,1.25-5.67,1.25-7.85,0l-91.96-53.09
					c-2.17-1.26-2.19-3.29-0.03-4.55l61.86-35.95c2.16-1.25,5.67-1.26,7.85,0l7.33,4.23l-1.19,0.69l77.17,44.55l1.19-0.69
					L282.38,176.65z M189.9,200.45l22.03-12.8c0.68-0.39,0.68-1.03-0.01-1.43l-37.81-21.83c-0.68-0.39-1.79-0.39-2.47,0l-22.03,12.8
					c-0.68,0.39-0.68,1.03,0.01,1.43l37.81,21.83C188.12,200.85,189.23,200.85,189.9,200.45 M179.49,160.02
					c-1.53,0.89-3.06,1.78-4.59,2.67c-0.39,0.23-0.39,0.59,0,0.82c10.62,6.13,21.23,12.26,31.85,18.39c0.39,0.23,1.03,0.23,1.42,0
					c1.53-0.89,3.06-1.78,4.59-2.67c0.39-0.23,0.39-0.59-0.01-0.82c-10.62-6.13-21.23-12.26-31.85-18.39
					C180.51,159.79,179.88,159.79,179.49,160.02 M157.23,139.6c-1.53,0.89-3.06,1.78-4.59,2.67c-0.39,0.23-0.39,0.59,0,0.82
					c4.44,2.57,8.89,5.13,13.33,7.7c0.39,0.23,1.03,0.23,1.42,0c1.53-0.89,3.06-1.78,4.59-2.67c0.39-0.23,0.39-0.59,0-0.82
					c-4.44-2.57-8.89-5.13-13.33-7.7C158.25,139.37,157.62,139.37,157.23,139.6 M250.03,198.49c1.53-0.89,3.06-1.78,4.59-2.67
					c0.39-0.23,0.39-0.59,0-0.82c-4.28-2.47-8.55-4.94-12.83-7.41c-0.39-0.23-1.03-0.23-1.42,0c-1.53,0.89-3.06,1.78-4.59,2.67
					c-0.39,0.23-0.39,0.59,0,0.82c4.28,2.47,8.55,4.94,12.83,7.41C249.01,198.72,249.64,198.72,250.03,198.49 M163.84,135.76
					c-1.53,0.89-3.06,1.78-4.59,2.67c-0.39,0.23-0.39,0.59,0,0.82c3.31,1.91,6.62,3.82,9.92,5.73c0.39,0.23,1.03,0.23,1.42,0
					c1.53-0.89,3.06-1.78,4.59-2.67c0.39-0.23,0.39-0.59,0-0.82c-3.31-1.91-6.62-3.82-9.92-5.73
					C164.86,135.53,164.23,135.53,163.84,135.76 M256.64,194.65c1.53-0.89,3.06-1.78,4.59-2.67c0.39-0.23,0.39-0.59,0-0.82
					c-3.27-1.89-6.54-3.78-9.81-5.66c-0.39-0.23-1.03-0.23-1.42,0c-1.53,0.89-3.06,1.78-4.59,2.67c-0.39,0.23-0.39,0.59,0,0.82
					c3.27,1.89,6.54,3.78,9.81,5.66C255.61,194.88,256.25,194.88,256.64,194.65 M170.42,131.93c-1.53,0.89-3.06,1.78-4.59,2.67
					c-0.39,0.23-0.39,0.59,0,0.82c2.73,1.58,5.47,3.16,8.2,4.74c0.39,0.23,1.03,0.23,1.42,0c1.53-0.89,3.06-1.78,4.59-2.67
					c0.39-0.23,0.39-0.59,0-0.82c-2.73-1.58-5.47-3.16-8.2-4.74C171.44,131.7,170.81,131.7,170.42,131.93 M269.75,187.03
					c1.53-0.89,3.06-1.78,4.59-2.67c0.46-0.27,0.3-0.64,0-0.82c-2.72-1.57-5.45-3.15-8.17-4.72c-0.39-0.23-1.03-0.23-1.42,0
					c-1.53,0.89-3.06,1.78-4.59,2.67c-0.39,0.23-0.39,0.59,0.01,0.82c2.72,1.57,5.45,3.15,8.17,4.72
					C268.73,187.26,269.37,187.26,269.75,187.03 M216.6,186.76c1.53-0.89,3.06-1.78,4.59-2.67c0.39-0.23,0.39-0.59,0-0.82
					c-2.17-1.25-4.34-2.51-6.52-3.76c-0.39-0.23-1.03-0.23-1.42,0c-1.53,0.89-3.06,1.78-4.59,2.67c-0.39,0.23-0.39,0.59,0,0.82
					c2.17,1.25,4.34,2.51,6.52,3.76C215.58,186.99,216.21,186.99,216.6,186.76 M174.3,162.34c1.53-0.89,3.06-1.78,4.59-2.67
					c0.39-0.23,0.39-0.59,0-0.82c-2.17-1.25-4.34-2.51-6.52-3.76c-0.39-0.23-1.03-0.23-1.42,0c-1.53,0.89-3.06,1.78-4.59,2.67
					c-0.39,0.23-0.39,0.59,0,0.82c2.17,1.25,4.34,2.51,6.52,3.76C173.28,162.57,173.91,162.57,174.3,162.34 M233.31,183.52
					c-1.53,0.89-3.06,1.78-4.59,2.67c-0.39,0.23-0.39,0.59,0,0.82c1.61,0.93,3.22,1.86,4.83,2.79c0.39,0.23,1.03,0.23,1.42,0
					c1.53-0.89,3.06-1.78,4.59-2.67c0.39-0.23,0.39-0.59,0-0.82c-1.61-0.93-3.22-1.86-4.83-2.79
					C234.33,183.29,233.7,183.29,233.31,183.52 M192.29,159.84c0.39-0.23,0.39-0.59,0-0.82c-1.61-0.93-3.22-1.86-4.83-2.79
					c-0.39-0.23-1.03-0.23-1.42,0c-1.53,0.89-3.06,1.78-4.59,2.67c-0.39,0.23-0.39,0.59,0.01,0.82c1.61,0.93,3.22,1.86,4.83,2.79
					c0.39,0.23,1.03,0.23,1.42,0C189.23,161.62,190.76,160.73,192.29,159.84 M199.54,164.02c-1.53,0.89-3.06,1.78-4.59,2.67
					c-0.39,0.23-0.39,0.59,0,0.82c1.61,0.93,3.22,1.86,4.83,2.79c0.39,0.23,1.03,0.23,1.42,0c1.53-0.89,3.06-1.78,4.59-2.67
					c0.39-0.23,0.39-0.59,0-0.82c-1.61-0.93-3.22-1.86-4.83-2.79C200.56,163.8,199.93,163.8,199.54,164.02 M219.8,175.72
					c-1.53,0.89-3.06,1.78-4.59,2.67c-0.39,0.23-0.39,0.59,0.01,0.82c1.61,0.93,3.22,1.86,4.83,2.79c0.39,0.23,1.03,0.23,1.42,0
					c1.53-0.89,3.06-1.78,4.59-2.67c0.39-0.23,0.39-0.59,0-0.82c-1.61-0.93-3.22-1.86-4.83-2.79
					C220.82,175.49,220.19,175.49,219.8,175.72 M206.29,167.92c-1.53,0.89-3.06,1.78-4.59,2.67c-0.39,0.23-0.39,0.59,0,0.82
					c1.61,0.93,3.22,1.86,4.83,2.79c0.39,0.23,1.03,0.23,1.42,0c1.53-0.89,3.06-1.78,4.59-2.67c0.39-0.23,0.39-0.59,0-0.82
					c-1.61-0.93-3.22-1.86-4.83-2.79C207.32,167.7,206.68,167.7,206.29,167.92 M207.06,152.27c-1.61-0.93-3.22-1.86-4.83-2.79
					c-0.39-0.23-1.03-0.23-1.42,0c-1.53,0.89-3.06,1.78-4.59,2.67c-0.39,0.23-0.39,0.59,0,0.82c1.61,0.93,3.22,1.86,4.83,2.79
					c0.39,0.23,1.03,0.23,1.42,0c1.53-0.89,3.06-1.78,4.59-2.67C207.46,152.86,207.45,152.49,207.06,152.27 M192.13,142.21
					c1.53-0.89,3.06-1.78,4.59-2.67c0.39-0.23,0.39-0.59-0.01-0.82c-1.61-0.93-3.22-1.86-4.83-2.79c-0.39-0.23-1.03-0.23-1.42,0
					c-1.53,0.89-3.06,1.78-4.59,2.67c-0.39,0.23-0.39,0.59,0.01,0.82c1.61,0.93,3.22,1.86,4.83,2.79
					C191.1,142.44,191.74,142.44,192.13,142.21 M213.29,178.1c0.39,0.23,1.03,0.23,1.42,0c1.53-0.89,3.06-1.78,4.59-2.67
					c0.39-0.23,0.39-0.59,0-0.82c-1.61-0.93-3.22-1.86-4.83-2.79c-0.39-0.23-1.03-0.23-1.42,0c-1.53,0.89-3.06,1.78-4.59,2.67
					c-0.39,0.23-0.39,0.59,0,0.82C210.07,176.24,211.68,177.17,213.29,178.1 M180.94,158.61c1.53-0.89,3.06-1.78,4.59-2.67
					c0.39-0.23,0.39-0.59,0-0.82c-1.61-0.93-3.22-1.86-4.83-2.79c-0.39-0.23-1.03-0.23-1.42,0c-1.53,0.89-3.06,1.78-4.59,2.67
					c-0.39,0.23-0.39,0.59,0,0.82c1.61,0.93,3.22,1.86,4.83,2.79C179.92,158.83,180.55,158.83,180.94,158.61 M250.25,184.16
					c1.61,0.93,3.22,1.86,4.83,2.79c0.39,0.23,1.03,0.23,1.42,0c1.53-0.89,3.06-1.78,4.59-2.67c0.39-0.23,0.39-0.59-0.01-0.82
					c-1.61-0.93-3.22-1.86-4.83-2.79c-0.39-0.23-1.03-0.23-1.42,0c-1.53,0.89-3.06,1.78-4.59,2.67
					C249.86,183.56,249.86,183.93,250.25,184.16 M220.57,160.07c-1.61-0.93-3.22-1.86-4.83-2.79c-0.39-0.23-1.03-0.23-1.42,0
					c-1.53,0.89-3.06,1.78-4.59,2.67c-0.39,0.23-0.39,0.59,0,0.82c1.61,0.93,3.22,1.86,4.83,2.79c0.39,0.23,1.03,0.23,1.42,0
					c1.53-0.89,3.06-1.78,4.59-2.67C220.96,160.66,220.96,160.29,220.57,160.07 M252.91,177.3c1.53-0.89,3.06-1.78,4.59-2.67
					c0.39-0.23,0.39-0.59-0.01-0.82c-1.61-0.93-3.22-1.86-4.83-2.79c-0.39-0.23-1.03-0.23-1.42,0c-1.53,0.89-3.06,1.78-4.59,2.67
					c-0.39,0.23-0.39,0.59,0.01,0.82c1.61,0.93,3.22,1.86,4.83,2.79C251.88,177.53,252.52,177.53,252.91,177.3 M205.63,150.01
					c1.53-0.89,3.06-1.78,4.59-2.67c0.39-0.23,0.39-0.59-0.01-0.82c-1.61-0.93-3.22-1.86-4.83-2.79c-0.39-0.23-1.03-0.23-1.42,0
					c-1.53,0.89-3.06,1.78-4.59,2.67c-0.39,0.23-0.39,0.59,0.01,0.82c1.61,0.93,3.22,1.86,4.83,2.79
					C204.61,150.24,205.24,150.24,205.63,150.01 M229.99,194.49c1.53-0.89,3.06-1.78,4.59-2.67c0.39-0.23,0.39-0.59-0.01-0.82
					c-1.61-0.93-3.22-1.86-4.83-2.79c-0.39-0.23-1.03-0.23-1.42,0c-1.53,0.89-3.06,1.78-4.59,2.67c-0.39,0.23-0.39,0.59,0,0.82
					c1.61,0.93,3.22,1.86,4.83,2.79C228.97,194.72,229.6,194.72,229.99,194.49 M180.55,137.78c-1.53,0.89-3.06,1.78-4.59,2.67
					c-0.39,0.23-0.39,0.59,0,0.82c1.61,0.93,3.22,1.86,4.83,2.79c0.39,0.23,1.03,0.23,1.42,0c1.53-0.89,3.06-1.78,4.59-2.67
					c0.39-0.23,0.39-0.59-0.01-0.82c-1.61-0.93-3.22-1.86-4.83-2.79C181.58,137.55,180.94,137.55,180.55,137.78 M247.58,175.66
					c-1.61-0.93-3.22-1.86-4.83-2.79c-0.39-0.23-1.03-0.23-1.42,0c-1.53,0.89-3.06,1.78-4.59,2.67c-0.39,0.23-0.39,0.59,0,0.82
					c1.61,0.93,3.22,1.86,4.83,2.79c0.39,0.23,1.03,0.23,1.42,0c1.53-0.89,3.06-1.78,4.59-2.67
					C247.98,176.26,247.98,175.89,247.58,175.66 M234.08,167.86c-1.61-0.93-3.22-1.86-4.83-2.79c-0.39-0.23-1.03-0.23-1.42,0
					c-1.53,0.89-3.06,1.78-4.59,2.67c-0.39,0.23-0.39,0.59,0,0.82c1.61,0.93,3.22,1.86,4.83,2.79c0.39,0.23,1.03,0.23,1.42,0
					c1.53-0.89,3.06-1.78,4.59-2.67C234.47,168.46,234.47,168.09,234.08,167.86 M232.65,165.61c1.53-0.89,3.06-1.78,4.59-2.67
					c0.39-0.23,0.39-0.59-0.01-0.82c-1.61-0.93-3.22-1.86-4.83-2.79c-0.39-0.23-1.03-0.23-1.42,0c-1.53,0.89-3.06,1.78-4.59,2.67
					c-0.39,0.23-0.39,0.59,0,0.82c1.61,0.93,3.22,1.86,4.83,2.79C231.62,165.83,232.26,165.83,232.65,165.61 M219.14,157.81
					c1.53-0.89,3.06-1.78,4.59-2.67c0.39-0.23,0.39-0.59-0.01-0.82c-1.61-0.93-3.22-1.86-4.83-2.79c-0.39-0.23-1.03-0.23-1.42,0
					c-1.53,0.89-3.06,1.78-4.59,2.67c-0.39,0.23-0.39,0.59,0.01,0.82c1.61,0.93,3.22,1.86,4.83,2.79
					C218.12,158.04,218.75,158.04,219.14,157.81 M226.55,179.62c-1.53,0.89-3.06,1.78-4.59,2.67c-0.39,0.23-0.39,0.59,0,0.82
					c1.61,0.93,3.22,1.86,4.83,2.79c0.39,0.23,1.03,0.23,1.42,0c1.53-0.89,3.06-1.78,4.59-2.67c0.39-0.23,0.39-0.59,0-0.82
					c-1.61-0.93-3.22-1.86-4.83-2.79C227.58,179.39,226.94,179.39,226.55,179.62 M192.78,160.12c-1.53,0.89-3.06,1.78-4.59,2.67
					c-0.39,0.23-0.39,0.59,0,0.82c1.61,0.93,3.22,1.86,4.83,2.79c0.39,0.23,1.03,0.23,1.42,0c1.53-0.89,3.06-1.78,4.59-2.67
					c0.39-0.23,0.39-0.59,0-0.82c-1.61-0.93-3.22-1.86-4.83-2.79C193.81,159.9,193.18,159.9,192.78,160.12 M177.91,150.02
					c1.61,0.93,3.22,1.86,4.83,2.79c0.39,0.23,1.03,0.23,1.42,0c1.53-0.89,3.06-1.78,4.59-2.67c0.39-0.23,0.39-0.59,0-0.82
					c-1.61-0.93-3.22-1.86-4.83-2.79c-0.39-0.23-1.03-0.23-1.42,0c-1.53,0.89-3.06,1.78-4.59,2.67
					C177.52,149.42,177.52,149.79,177.91,150.02 M218.43,173.41c1.61,0.93,3.22,1.86,4.83,2.79c0.39,0.23,1.03,0.23,1.42,0
					c1.53-0.89,3.06-1.78,4.59-2.67c0.39-0.23,0.39-0.59-0.01-0.82c-1.61-0.93-3.22-1.86-4.83-2.79c-0.39-0.23-1.03-0.23-1.42,0
					c-1.53,0.89-3.06,1.78-4.59,2.67C218.04,172.82,218.04,173.19,218.43,173.41 M238.69,185.11c1.61,0.93,3.22,1.86,4.83,2.79
					c0.39,0.23,1.03,0.23,1.42,0c1.53-0.89,3.06-1.78,4.59-2.67c0.39-0.23,0.39-0.59-0.01-0.82c-1.61-0.93-3.22-1.86-4.83-2.79
					c-0.39-0.23-1.03-0.23-1.42,0c-1.53,0.89-3.06,1.78-4.59,2.67C238.3,184.52,238.3,184.88,238.69,185.11 M204.92,165.62
					c1.61,0.93,3.22,1.86,4.83,2.79c0.39,0.23,1.03,0.23,1.42,0c1.53-0.89,3.06-1.78,4.59-2.67c0.39-0.23,0.39-0.59-0.01-0.82
					c-1.61-0.93-3.22-1.86-4.83-2.79c-0.39-0.23-1.03-0.23-1.42,0c-1.53,0.89-3.06,1.78-4.59,2.67
					C204.53,165.02,204.53,165.39,204.92,165.62 M227.32,163.97c-1.61-0.93-3.22-1.86-4.83-2.79c-0.39-0.23-1.03-0.23-1.42,0
					c-1.53,0.89-3.06,1.78-4.59,2.67c-0.39,0.23-0.39,0.59,0,0.82c1.61,0.93,3.22,1.86,4.83,2.79c0.39,0.23,1.03,0.23,1.42,0
					c1.53-0.89,3.06-1.78,4.59-2.67C227.72,164.56,227.72,164.19,227.32,163.97 M193.56,144.47c-1.61-0.93-3.22-1.86-4.83-2.79
					c-0.39-0.23-1.03-0.23-1.42,0c-1.53,0.89-3.06,1.78-4.59,2.67c-0.39,0.23-0.39,0.59,0,0.82c1.61,0.93,3.22,1.86,4.83,2.79
					c0.39,0.23,1.03,0.23,1.42,0c1.53-0.89,3.06-1.78,4.59-2.67C193.95,145.06,193.95,144.7,193.56,144.47 M254.34,179.56
					c-1.61-0.93-3.22-1.86-4.83-2.79c-0.39-0.23-1.03-0.23-1.42,0c-1.53,0.89-3.06,1.78-4.59,2.67c-0.39,0.23-0.39,0.59,0,0.82
					c1.61,0.93,3.22,1.86,4.83,2.79c0.39,0.23,1.03,0.23,1.42,0c1.53-0.89,3.06-1.78,4.59-2.67
					C254.73,180.16,254.73,179.79,254.34,179.56 M212.39,153.91c1.53-0.89,3.06-1.78,4.59-2.67c0.39-0.23,0.39-0.59,0-0.82
					c-1.61-0.93-3.22-1.86-4.83-2.79c-0.39-0.23-1.03-0.23-1.42,0c-1.53,0.89-3.06,1.78-4.59,2.67c-0.39,0.23-0.39,0.59,0.01,0.82
					c1.61,0.93,3.22,1.86,4.83,2.79C211.36,154.14,212,154.14,212.39,153.91 M223.24,190.59c1.53-0.89,3.06-1.78,4.59-2.67
					c0.39-0.23,0.39-0.59,0-0.82c-1.61-0.93-3.22-1.86-4.83-2.79c-0.39-0.23-1.03-0.23-1.42,0c-1.53,0.89-3.06,1.78-4.59,2.67
					c-0.39,0.23-0.39,0.59,0,0.82c1.61,0.93,3.22,1.86,4.83,2.79C222.21,190.82,222.85,190.82,223.24,190.59 M179.12,135.52
					c1.61,0.93,3.22,1.86,4.83,2.79c0.39,0.23,1.03,0.23,1.42,0c1.53-0.89,3.06-1.78,4.59-2.67c0.39-0.23,0.39-0.59,0-0.82
					c-1.61-0.93-3.22-1.86-4.83-2.79c-0.39-0.23-1.03-0.23-1.42,0c-1.53,0.89-3.06,1.78-4.59,2.67
					C178.73,134.93,178.73,135.3,179.12,135.52 M176.95,128.13c-1.53,0.89-3.06,1.78-4.59,2.67c-0.39,0.23-0.39,0.59,0.01,0.82
					c1.61,0.93,3.22,1.86,4.83,2.79c0.39,0.23,1.03,0.23,1.42,0c1.53-0.89,3.06-1.78,4.59-2.67c0.39-0.23,0.39-0.59,0-0.82
					c-1.61-0.93-3.22-1.86-4.83-2.79C177.98,127.91,177.34,127.91,176.95,128.13 M239.4,169.51c1.53-0.89,3.06-1.78,4.59-2.67
					c0.39-0.23,0.39-0.59,0-0.82c-1.61-0.93-3.22-1.86-4.83-2.79c-0.39-0.23-1.03-0.23-1.42,0c-1.53,0.89-3.06,1.78-4.59,2.67
					c-0.39,0.23-0.39,0.59,0.01,0.82c1.61,0.93,3.22,1.86,4.83,2.79C238.38,169.73,239.01,169.73,239.4,169.51 M246.15,173.41
					c1.53-0.89,3.06-1.78,4.59-2.67c0.39-0.23,0.39-0.59,0-0.82c-1.61-0.93-3.22-1.86-4.83-2.79c-0.39-0.23-1.03-0.23-1.42,0
					c-1.53,0.89-3.06,1.78-4.59,2.67c-0.39,0.23-0.39,0.59,0,0.82c1.61,0.93,3.22,1.86,4.83,2.79
					C245.13,173.63,245.76,173.63,246.15,173.41 M191.42,157.82c1.61,0.93,3.22,1.86,4.83,2.79c0.39,0.23,1.03,0.23,1.42,0
					c1.53-0.89,3.06-1.78,4.59-2.67c0.39-0.23,0.39-0.59-0.01-0.82c-1.61-0.93-3.22-1.86-4.83-2.79c-0.39-0.23-1.03-0.23-1.42,0
					c-1.53,0.89-3.06,1.78-4.59,2.67C191.02,157.22,191.02,157.59,191.42,157.82 M263.22,190.83c1.53-0.89,3.06-1.78,4.59-2.67
					c0.39-0.23,0.39-0.59,0-0.82c-1.61-0.93-3.22-1.86-4.83-2.79c-0.39-0.23-1.03-0.23-1.42,0c-1.53,0.89-3.06,1.78-4.59,2.67
					c-0.39,0.23-0.39,0.59,0,0.82c1.61,0.93,3.22,1.86,4.83,2.79C262.2,191.06,262.83,191.05,263.22,190.83 M243.5,202.29
					c1.53-0.89,3.06-1.78,4.59-2.67c0.39-0.23,0.39-0.59,0-0.82c-1.61-0.93-3.22-1.86-4.83-2.79c-0.39-0.23-1.03-0.23-1.42,0
					c-1.53,0.89-3.06,1.78-4.59,2.67c-0.39,0.23-0.39,0.59,0,0.82c1.61,0.93,3.22,1.86,4.83,2.79
					C242.47,202.52,243.11,202.52,243.5,202.29 M189.47,149.07c1.61,0.93,3.22,1.86,4.83,2.79c0.39,0.23,1.03,0.23,1.42,0
					c1.53-0.89,3.06-1.78,4.59-2.67c0.39-0.23,0.39-0.59,0-0.82c-1.61-0.93-3.22-1.86-4.83-2.79c-0.39-0.23-1.03-0.23-1.42,0
					c-1.53,0.89-3.06,1.78-4.59,2.67C189.08,148.47,189.08,148.84,189.47,149.07 M213.82,156.17c-1.61-0.93-3.22-1.86-4.83-2.79
					c-0.39-0.23-1.03-0.23-1.42,0c-1.53,0.89-3.06,1.78-4.59,2.67c-0.39,0.23-0.39,0.59,0,0.82c1.61,0.93,3.22,1.86,4.83,2.79
					c0.39,0.23,1.03,0.23,1.42,0c1.53-0.89,3.06-1.78,4.59-2.67C214.21,156.76,214.21,156.39,213.82,156.17 M240.83,171.76
					c-1.61-0.93-3.22-1.86-4.83-2.79c-0.39-0.23-1.03-0.23-1.42,0c-1.53,0.89-3.06,1.78-4.59,2.67c-0.39,0.23-0.39,0.59,0,0.82
					c1.61,0.93,3.22,1.86,4.83,2.79c0.39,0.23,1.03,0.23,1.42,0c1.53-0.89,3.06-1.78,4.59-2.67
					C241.22,172.36,241.22,171.99,240.83,171.76 M192.62,142.5c-0.39,0.23-0.39,0.59,0,0.82c1.61,0.93,3.22,1.86,4.83,2.79
					c0.39,0.23,1.03,0.23,1.42,0c1.53-0.89,3.06-1.78,4.59-2.67c0.39-0.23,0.39-0.59,0-0.82c-1.61-0.93-3.22-1.86-4.83-2.79
					c-0.39-0.23-1.03-0.23-1.42,0C195.68,140.72,194.15,141.61,192.62,142.5 M259.66,181.2c1.53-0.89,3.06-1.78,4.59-2.67
					c0.39-0.23,0.39-0.59,0-0.82c-1.61-0.93-3.22-1.86-4.83-2.79c-0.39-0.23-1.03-0.23-1.42,0c-1.53,0.89-3.06,1.78-4.59,2.67
					c-0.39,0.23-0.39,0.59,0,0.82c1.61,0.93,3.22,1.86,4.83,2.79C258.64,181.43,259.27,181.43,259.66,181.2 M225.89,161.71
					c1.53-0.89,3.06-1.78,4.59-2.67c0.39-0.23,0.39-0.59,0-0.82c-1.61-0.93-3.22-1.86-4.83-2.79c-0.39-0.23-1.03-0.23-1.42,0
					c-1.53,0.89-3.06,1.78-4.59,2.67c-0.39,0.23-0.39,0.59,0,0.82c1.61,0.93,3.22,1.86,4.83,2.79
					C224.87,161.93,225.5,161.93,225.89,161.71 M236.74,198.39c1.53-0.89,3.06-1.78,4.59-2.67c0.39-0.23,0.39-0.59,0-0.82
					c-1.61-0.93-3.22-1.86-4.83-2.79c-0.39-0.23-1.03-0.23-1.42,0c-1.53,0.89-3.06,1.78-4.59,2.67c-0.39,0.23-0.39,0.59,0,0.82
					c1.61,0.93,3.22,1.86,4.83,2.79C235.72,198.62,236.35,198.62,236.74,198.39 M189.25,150.43c-1.53,0.89-3.06,1.78-4.59,2.67
					c-0.39,0.23-0.39,0.59,0,0.82c1.61,0.93,3.22,1.86,4.83,2.79c0.39,0.23,1.03,0.23,1.42,0c1.53-0.89,3.06-1.78,4.59-2.67
					c0.39-0.23,0.39-0.59,0-0.82c-1.61-0.93-3.22-1.86-4.83-2.79C190.27,150.2,189.64,150.2,189.25,150.43 M198.17,161.72
					c1.61,0.93,3.22,1.86,4.83,2.79c0.39,0.23,1.03,0.23,1.42,0c1.53-0.89,3.06-1.78,4.59-2.67c0.39-0.23,0.39-0.59-0.01-0.82
					c-1.61-0.93-3.22-1.86-4.83-2.79c-0.39-0.23-1.03-0.23-1.42,0c-1.53,0.89-3.06,1.78-4.59,2.67
					C197.78,161.12,197.78,161.49,198.17,161.72 M211.68,169.51c1.61,0.93,3.22,1.86,4.83,2.79c0.39,0.23,1.03,0.23,1.42,0
					c1.53-0.89,3.06-1.78,4.59-2.67c0.39-0.23,0.39-0.59,0-0.82c-1.61-0.93-3.22-1.86-4.83-2.79c-0.39-0.23-1.03-0.23-1.42,0
					c-1.53,0.89-3.06,1.78-4.59,2.67C211.28,168.92,211.29,169.29,211.68,169.51 M225.18,177.31c1.61,0.93,3.22,1.86,4.83,2.79
					c0.39,0.23,1.03,0.23,1.42,0c1.53-0.89,3.06-1.78,4.59-2.67c0.39-0.23,0.39-0.59-0.01-0.82c-1.61-0.93-3.22-1.86-4.83-2.79
					c-0.39-0.23-1.03-0.23-1.42,0c-1.53,0.89-3.06,1.78-4.59,2.67C224.79,176.72,224.79,177.09,225.18,177.31 M231.94,181.21
					c1.61,0.93,3.22,1.86,4.83,2.79c0.39,0.23,1.03,0.23,1.42,0c1.53-0.89,3.06-1.78,4.59-2.67c0.39-0.23,0.39-0.59,0-0.82
					c-1.61-0.93-3.22-1.86-4.83-2.79c-0.39-0.23-1.03-0.23-1.42,0c-1.53,0.89-3.06,1.78-4.59,2.67
					C231.54,180.62,231.55,180.99,231.94,181.21 M175.74,142.63c-1.53,0.89-3.06,1.78-4.59,2.67c-0.39,0.23-0.39,0.59,0,0.82
					c1.61,0.93,3.22,1.86,4.83,2.79c0.39,0.23,1.03,0.23,1.42,0c1.53-0.89,3.06-1.78,4.59-2.67c0.39-0.23,0.39-0.59,0-0.82
					c-1.61-0.93-3.22-1.86-4.83-2.79C176.77,142.4,176.13,142.4,175.74,142.63 M172.52,148.43c-1.53,0.89-3.06,1.78-4.59,2.67
					c-0.39,0.23-0.39,0.59,0,0.82c1.59,0.92,3.17,1.83,4.76,2.75c0.39,0.23,1.03,0.23,1.42,0c1.53-0.89,3.06-1.78,4.59-2.67
					c0.36-0.21,0.4-0.54,0.07-0.78c-1.61-0.93-3.22-1.86-4.83-2.79C173.55,148.2,172.91,148.2,172.52,148.43 M159.04,153.53
					c1.53-0.89,3.06-1.78,4.59-2.67c0.39-0.23,0.39-0.59-0.01-0.82c-1.59-0.92-3.17-1.83-4.76-2.75c-0.39-0.23-1.03-0.23-1.42,0
					c-1.53,0.89-3.06,1.78-4.59,2.67c-0.39,0.23-0.39,0.59,0.01,0.82c1.59,0.92,3.17,1.83,4.76,2.75
					C158.01,153.75,158.65,153.75,159.04,153.53 M165.79,157.43c1.53-0.89,3.06-1.78,4.59-2.67c0.39-0.23,0.39-0.59,0-0.82
					c-1.59-0.92-3.17-1.83-4.76-2.75c-0.39-0.23-1.03-0.23-1.42,0c-1.53,0.89-3.06,1.78-4.59,2.67c-0.39,0.23-0.39,0.59,0.01,0.82
					c1.59,0.92,3.17,1.83,4.76,2.75C164.77,157.65,165.4,157.65,165.79,157.43 M152.28,149.63c1.53-0.89,3.06-1.78,4.59-2.67
					c0.39-0.23,0.39-0.59,0-0.82c-1.59-0.92-3.17-1.83-4.76-2.75c-0.39-0.23-1.03-0.23-1.42,0c-1.53,0.89-3.06,1.78-4.59,2.67
					c-0.39,0.23-0.39,0.59,0.01,0.82c1.59,0.92,3.17,1.83,4.76,2.75C151.26,149.86,151.89,149.86,152.28,149.63 M180.24,126.23
					c-0.47,0.27-0.94,0.55-1.41,0.82c-0.39,0.23-0.39,0.59,0,0.82c2.74,1.58,5.47,3.16,8.21,4.74c0.39,0.23,1.03,0.23,1.42,0
					c0.47-0.27,0.94-0.55,1.41-0.82c0.39-0.23,0.39-0.59,0-0.82c-2.74-1.58-5.47-3.16-8.21-4.74
					C181.26,126,180.63,126,180.24,126.23 M203.84,139.85c-0.47,0.27-0.94,0.55-1.41,0.82c-0.39,0.23-0.39,0.59,0,0.82
					c1.61,0.93,3.22,1.86,4.83,2.79c0.39,0.23,1.03,0.23,1.42,0c0.47-0.27,0.94-0.55,1.41-0.82c0.39-0.23,0.39-0.59,0-0.82
					c-1.61-0.93-3.22-1.86-4.83-2.79C204.86,139.63,204.23,139.62,203.84,139.85 M230.85,155.45c-0.47,0.27-0.94,0.55-1.41,0.82
					c-0.39,0.23-0.39,0.59,0,0.82c1.61,0.93,3.22,1.86,4.83,2.79c0.39,0.23,1.03,0.23,1.42,0c0.47-0.27,0.94-0.55,1.41-0.82
					c0.39-0.23,0.39-0.59-0.01-0.82c-1.61-0.93-3.22-1.86-4.83-2.79C231.88,155.22,231.24,155.22,230.85,155.45 M217.35,147.65
					c-0.47,0.27-0.94,0.55-1.41,0.82c-0.39,0.23-0.39,0.59,0,0.82c1.61,0.93,3.22,1.86,4.83,2.79c0.39,0.23,1.03,0.23,1.42,0
					c0.47-0.27,0.94-0.55,1.41-0.82c0.39-0.23,0.39-0.59-0.01-0.82c-1.61-0.93-3.22-1.86-4.83-2.79
					C218.37,147.42,217.74,147.42,217.35,147.65 M257.87,171.05c-0.47,0.27-0.94,0.55-1.41,0.82c-0.39,0.23-0.39,0.59,0,0.82
					c1.61,0.93,3.22,1.86,4.83,2.79c0.39,0.23,1.03,0.23,1.42,0c0.47-0.27,0.94-0.55,1.41-0.82c0.39-0.23,0.39-0.59-0.01-0.82
					c-1.61-0.93-3.22-1.86-4.83-2.79C258.89,170.82,258.26,170.82,257.87,171.05 M244.36,163.25c-0.47,0.27-0.94,0.55-1.41,0.82
					c-0.39,0.23-0.39,0.59,0,0.82c1.61,0.93,3.22,1.86,4.83,2.79c0.39,0.23,1.03,0.23,1.42,0c0.47-0.27,0.94-0.55,1.41-0.82
					c0.39-0.23,0.39-0.59-0.01-0.82c-1.61-0.93-3.22-1.86-4.83-2.79C245.39,163.02,244.75,163.02,244.36,163.25 M251.11,167.15
					c-0.47,0.27-0.94,0.55-1.41,0.82c-0.39,0.23-0.39,0.59,0,0.82c1.61,0.93,3.22,1.86,4.83,2.79c0.39,0.23,1.03,0.23,1.42,0
					c0.47-0.27,0.94-0.55,1.41-0.82c0.39-0.23,0.39-0.59,0-0.82c-1.61-0.93-3.22-1.86-4.83-2.79
					C252.14,166.92,251.5,166.92,251.11,167.15 M197.09,135.95c-0.47,0.27-0.94,0.55-1.41,0.82c-0.39,0.23-0.39,0.59,0,0.82
					c1.61,0.93,3.22,1.86,4.83,2.79c0.39,0.23,1.03,0.23,1.42,0c0.47-0.27,0.94-0.55,1.41-0.82c0.39-0.23,0.39-0.59,0-0.82
					c-1.61-0.93-3.22-1.86-4.83-2.79C198.11,135.73,197.48,135.73,197.09,135.95 M224.1,151.55c-0.47,0.27-0.94,0.55-1.41,0.82
					c-0.39,0.23-0.39,0.59,0,0.82c1.61,0.93,3.22,1.86,4.83,2.79c0.39,0.23,1.03,0.23,1.42,0c0.47-0.27,0.94-0.55,1.41-0.82
					c0.39-0.23,0.39-0.59,0-0.82c-1.61-0.93-3.22-1.86-4.83-2.79C225.12,151.32,224.49,151.32,224.1,151.55 M190.33,132.05
					c-0.47,0.27-0.94,0.55-1.41,0.82c-0.39,0.23-0.39,0.59,0,0.82c1.61,0.93,3.22,1.86,4.83,2.79c0.39,0.23,1.03,0.23,1.42,0
					c0.47-0.27,0.94-0.55,1.41-0.82c0.39-0.23,0.39-0.59,0-0.82c-1.61-0.93-3.22-1.86-4.83-2.79
					C191.36,131.83,190.72,131.83,190.33,132.05 M210.59,143.75c-0.47,0.27-0.94,0.55-1.41,0.82c-0.39,0.23-0.39,0.59,0,0.82
					c1.61,0.93,3.22,1.86,4.83,2.79c0.39,0.23,1.03,0.23,1.42,0c0.47-0.27,0.94-0.55,1.41-0.82c0.39-0.23,0.39-0.59,0-0.82
					c-1.61-0.93-3.22-1.86-4.83-2.79C211.62,143.52,210.98,143.52,210.59,143.75 M276.22,183.28c0.19-0.11,1.2-0.69,1.41-0.82
					c0.39-0.23,0.39-0.59,0-0.82c-1.61-0.93-3.22-1.86-4.83-2.79c-0.39-0.23-1.03-0.23-1.42,0c-0.47,0.27-0.94,0.55-1.41,0.82
					c-0.39,0.23-0.39,0.59,0,0.82c1.61,0.93,3.22,1.86,4.83,2.79C275.19,183.5,275.83,183.5,276.22,183.28 M237.61,159.35
					c-0.47,0.27-0.94,0.55-1.41,0.82c-0.39,0.23-0.39,0.59,0,0.82c1.61,0.93,3.22,1.86,4.83,2.79c0.39,0.23,1.03,0.23,1.42,0
					c0.47-0.27,0.94-0.55,1.41-0.82c0.39-0.23,0.39-0.59,0-0.82c-1.61-0.93-3.22-1.86-4.83-2.79
					C238.63,159.12,238,159.12,237.61,159.35 M264.62,174.94c-0.47,0.27-0.94,0.55-1.41,0.82c-0.39,0.23-0.39,0.59,0,0.82
					c1.61,0.93,3.22,1.86,4.83,2.79c0.39,0.23,1.03,0.23,1.42,0c0.47-0.27,0.94-0.55,1.41-0.82c0.39-0.23,0.39-0.59,0-0.82
					c-1.61-0.93-3.22-1.86-4.83-2.79C265.65,174.72,265.01,174.72,264.62,174.94"/>
			</g>
			<path class="st4" d="M189.9,200.45l22.03-12.8c0.68-0.39,0.68-1.03-0.01-1.43l-37.81-21.83c-0.68-0.39-1.79-0.39-2.47,0
				l-22.03,12.8c-0.68,0.39-0.68,1.03,0.01,1.43l37.81,21.83C188.12,200.85,189.23,200.85,189.9,200.45"/>
		</g>
		<g>
			<path d="M179.49,160.02c-1.53,0.89-3.06,1.78-4.59,2.67c-0.39,0.23-0.39,0.59,0,0.82c10.62,6.13,21.23,12.26,31.85,18.39
				c0.39,0.23,1.03,0.23,1.42,0c1.53-0.89,3.06-1.78,4.59-2.67c0.39-0.23,0.39-0.59-0.01-0.82c-10.62-6.13-21.23-12.26-31.85-18.39
				C180.51,159.79,179.88,159.79,179.49,160.02"/>
			<path d="M157.23,139.6c-1.53,0.89-3.06,1.78-4.59,2.67c-0.39,0.23-0.39,0.59,0,0.82c4.44,2.57,8.89,5.13,13.33,7.7
				c0.39,0.23,1.03,0.23,1.42,0c1.53-0.89,3.06-1.78,4.59-2.67c0.39-0.23,0.39-0.59,0-0.82c-4.44-2.57-8.89-5.13-13.33-7.7
				C158.25,139.37,157.62,139.37,157.23,139.6"/>
			<path d="M250.03,198.49c1.53-0.89,3.06-1.78,4.59-2.67c0.39-0.23,0.39-0.59,0-0.82c-4.28-2.47-8.55-4.94-12.83-7.41
				c-0.39-0.23-1.03-0.23-1.42,0c-1.53,0.89-3.06,1.78-4.59,2.67c-0.39,0.23-0.39,0.59,0,0.82c4.28,2.47,8.55,4.94,12.83,7.41
				C249.01,198.72,249.64,198.72,250.03,198.49"/>
			<path d="M163.84,135.76c-1.53,0.89-3.06,1.78-4.59,2.67c-0.39,0.23-0.39,0.59,0,0.82c3.31,1.91,6.62,3.82,9.92,5.73
				c0.39,0.23,1.03,0.23,1.42,0c1.53-0.89,3.06-1.78,4.59-2.67c0.39-0.23,0.39-0.59,0-0.82c-3.31-1.91-6.62-3.82-9.92-5.73
				C164.86,135.53,164.23,135.53,163.84,135.76"/>
			<path d="M256.64,194.65c1.53-0.89,3.06-1.78,4.59-2.67c0.39-0.23,0.39-0.59,0-0.82c-3.27-1.89-6.54-3.78-9.81-5.66
				c-0.39-0.23-1.03-0.23-1.42,0c-1.53,0.89-3.06,1.78-4.59,2.67c-0.39,0.23-0.39,0.59,0,0.82c3.27,1.89,6.54,3.78,9.81,5.66
				C255.61,194.88,256.25,194.88,256.64,194.65"/>
			<path d="M170.42,131.93c-1.53,0.89-3.06,1.78-4.59,2.67c-0.39,0.23-0.39,0.59,0,0.82c2.73,1.58,5.47,3.16,8.2,4.74
				c0.39,0.23,1.03,0.23,1.42,0c1.53-0.89,3.06-1.78,4.59-2.67c0.39-0.23,0.39-0.59,0-0.82c-2.73-1.58-5.47-3.16-8.2-4.74
				C171.44,131.7,170.81,131.7,170.42,131.93"/>
			<path d="M269.75,187.03c1.53-0.89,3.06-1.78,4.59-2.67c0.46-0.27,0.3-0.64,0-0.82c-2.72-1.57-5.45-3.15-8.17-4.72
				c-0.39-0.23-1.03-0.23-1.42,0c-1.53,0.89-3.06,1.78-4.59,2.67c-0.39,0.23-0.39,0.59,0.01,0.82c2.72,1.57,5.45,3.15,8.17,4.72
				C268.73,187.26,269.37,187.26,269.75,187.03"/>
			<path d="M216.6,186.76c1.53-0.89,3.06-1.78,4.59-2.67c0.39-0.23,0.39-0.59,0-0.82c-2.17-1.25-4.34-2.51-6.52-3.76
				c-0.39-0.23-1.03-0.23-1.42,0c-1.53,0.89-3.06,1.78-4.59,2.67c-0.39,0.23-0.39,0.59,0,0.82c2.17,1.25,4.34,2.51,6.52,3.76
				C215.58,186.99,216.21,186.99,216.6,186.76"/>
			<path d="M174.3,162.34c1.53-0.89,3.06-1.78,4.59-2.67c0.39-0.23,0.39-0.59,0-0.82c-2.17-1.25-4.34-2.51-6.52-3.76
				c-0.39-0.23-1.03-0.23-1.42,0c-1.53,0.89-3.06,1.78-4.59,2.67c-0.39,0.23-0.39,0.59,0,0.82c2.17,1.25,4.34,2.51,6.52,3.76
				C173.28,162.57,173.91,162.57,174.3,162.34"/>
			<path d="M233.31,183.52c-1.53,0.89-3.06,1.78-4.59,2.67c-0.39,0.23-0.39,0.59,0,0.82c1.61,0.93,3.22,1.86,4.83,2.79
				c0.39,0.23,1.03,0.23,1.42,0c1.53-0.89,3.06-1.78,4.59-2.67c0.39-0.23,0.39-0.59,0-0.82c-1.61-0.93-3.22-1.86-4.83-2.79
				C234.33,183.29,233.7,183.29,233.31,183.52"/>
			<path d="M192.29,159.84c0.39-0.23,0.39-0.59,0-0.82c-1.61-0.93-3.22-1.86-4.83-2.79c-0.39-0.23-1.03-0.23-1.42,0
				c-1.53,0.89-3.06,1.78-4.59,2.67c-0.39,0.23-0.39,0.59,0.01,0.82c1.61,0.93,3.22,1.86,4.83,2.79c0.39,0.23,1.03,0.23,1.42,0
				C189.23,161.62,190.76,160.73,192.29,159.84"/>
			<path d="M199.54,164.02c-1.53,0.89-3.06,1.78-4.59,2.67c-0.39,0.23-0.39,0.59,0,0.82c1.61,0.93,3.22,1.86,4.83,2.79
				c0.39,0.23,1.03,0.23,1.42,0c1.53-0.89,3.06-1.78,4.59-2.67c0.39-0.23,0.39-0.59,0-0.82c-1.61-0.93-3.22-1.86-4.83-2.79
				C200.56,163.8,199.93,163.8,199.54,164.02"/>
			<path d="M219.8,175.72c-1.53,0.89-3.06,1.78-4.59,2.67c-0.39,0.23-0.39,0.59,0.01,0.82c1.61,0.93,3.22,1.86,4.83,2.79
				c0.39,0.23,1.03,0.23,1.42,0c1.53-0.89,3.06-1.78,4.59-2.67c0.39-0.23,0.39-0.59,0-0.82c-1.61-0.93-3.22-1.86-4.83-2.79
				C220.82,175.49,220.19,175.49,219.8,175.72"/>
			<path d="M206.29,167.92c-1.53,0.89-3.06,1.78-4.59,2.67c-0.39,0.23-0.39,0.59,0,0.82c1.61,0.93,3.22,1.86,4.83,2.79
				c0.39,0.23,1.03,0.23,1.42,0c1.53-0.89,3.06-1.78,4.59-2.67c0.39-0.23,0.39-0.59,0-0.82c-1.61-0.93-3.22-1.86-4.83-2.79
				C207.32,167.7,206.68,167.7,206.29,167.92"/>
			<path d="M207.06,152.27c-1.61-0.93-3.22-1.86-4.83-2.79c-0.39-0.23-1.03-0.23-1.42,0c-1.53,0.89-3.06,1.78-4.59,2.67
				c-0.39,0.23-0.39,0.59,0,0.82c1.61,0.93,3.22,1.86,4.83,2.79c0.39,0.23,1.03,0.23,1.42,0c1.53-0.89,3.06-1.78,4.59-2.67
				C207.46,152.86,207.45,152.49,207.06,152.27"/>
			<path d="M192.13,142.21c1.53-0.89,3.06-1.78,4.59-2.67c0.39-0.23,0.39-0.59-0.01-0.82c-1.61-0.93-3.22-1.86-4.83-2.79
				c-0.39-0.23-1.03-0.23-1.42,0c-1.53,0.89-3.06,1.78-4.59,2.67c-0.39,0.23-0.39,0.59,0.01,0.82c1.61,0.93,3.22,1.86,4.83,2.79
				C191.1,142.44,191.74,142.44,192.13,142.21"/>
			<path d="M213.29,178.1c0.39,0.23,1.03,0.23,1.42,0c1.53-0.89,3.06-1.78,4.59-2.67c0.39-0.23,0.39-0.59,0-0.82
				c-1.61-0.93-3.22-1.86-4.83-2.79c-0.39-0.23-1.03-0.23-1.42,0c-1.53,0.89-3.06,1.78-4.59,2.67c-0.39,0.23-0.39,0.59,0,0.82
				C210.07,176.24,211.68,177.17,213.29,178.1"/>
			<path d="M180.94,158.61c1.53-0.89,3.06-1.78,4.59-2.67c0.39-0.23,0.39-0.59,0-0.82c-1.61-0.93-3.22-1.86-4.83-2.79
				c-0.39-0.23-1.03-0.23-1.42,0c-1.53,0.89-3.06,1.78-4.59,2.67c-0.39,0.23-0.39,0.59,0,0.82c1.61,0.93,3.22,1.86,4.83,2.79
				C179.92,158.83,180.55,158.83,180.94,158.61"/>
			<path d="M250.25,184.16c1.61,0.93,3.22,1.86,4.83,2.79c0.39,0.23,1.03,0.23,1.42,0c1.53-0.89,3.06-1.78,4.59-2.67
				c0.39-0.23,0.39-0.59-0.01-0.82c-1.61-0.93-3.22-1.86-4.83-2.79c-0.39-0.23-1.03-0.23-1.42,0c-1.53,0.89-3.06,1.78-4.59,2.67
				C249.86,183.56,249.86,183.93,250.25,184.16"/>
			<path d="M220.57,160.07c-1.61-0.93-3.22-1.86-4.83-2.79c-0.39-0.23-1.03-0.23-1.42,0c-1.53,0.89-3.06,1.78-4.59,2.67
				c-0.39,0.23-0.39,0.59,0,0.82c1.61,0.93,3.22,1.86,4.83,2.79c0.39,0.23,1.03,0.23,1.42,0c1.53-0.89,3.06-1.78,4.59-2.67
				C220.96,160.66,220.96,160.29,220.57,160.07"/>
			<path d="M252.91,177.3c1.53-0.89,3.06-1.78,4.59-2.67c0.39-0.23,0.39-0.59-0.01-0.82c-1.61-0.93-3.22-1.86-4.83-2.79
				c-0.39-0.23-1.03-0.23-1.42,0c-1.53,0.89-3.06,1.78-4.59,2.67c-0.39,0.23-0.39,0.59,0.01,0.82c1.61,0.93,3.22,1.86,4.83,2.79
				C251.88,177.53,252.52,177.53,252.91,177.3"/>
			<path d="M205.63,150.01c1.53-0.89,3.06-1.78,4.59-2.67c0.39-0.23,0.39-0.59-0.01-0.82c-1.61-0.93-3.22-1.86-4.83-2.79
				c-0.39-0.23-1.03-0.23-1.42,0c-1.53,0.89-3.06,1.78-4.59,2.67c-0.39,0.23-0.39,0.59,0.01,0.82c1.61,0.93,3.22,1.86,4.83,2.79
				C204.61,150.24,205.24,150.24,205.63,150.01"/>
			<path d="M229.99,194.49c1.53-0.89,3.06-1.78,4.59-2.67c0.39-0.23,0.39-0.59-0.01-0.82c-1.61-0.93-3.22-1.86-4.83-2.79
				c-0.39-0.23-1.03-0.23-1.42,0c-1.53,0.89-3.06,1.78-4.59,2.67c-0.39,0.23-0.39,0.59,0,0.82c1.61,0.93,3.22,1.86,4.83,2.79
				C228.97,194.72,229.6,194.72,229.99,194.49"/>
			<path d="M180.55,137.78c-1.53,0.89-3.06,1.78-4.59,2.67c-0.39,0.23-0.39,0.59,0,0.82c1.61,0.93,3.22,1.86,4.83,2.79
				c0.39,0.23,1.03,0.23,1.42,0c1.53-0.89,3.06-1.78,4.59-2.67c0.39-0.23,0.39-0.59-0.01-0.82c-1.61-0.93-3.22-1.86-4.83-2.79
				C181.58,137.55,180.94,137.55,180.55,137.78"/>
			<path d="M247.58,175.66c-1.61-0.93-3.22-1.86-4.83-2.79c-0.39-0.23-1.03-0.23-1.42,0c-1.53,0.89-3.06,1.78-4.59,2.67
				c-0.39,0.23-0.39,0.59,0,0.82c1.61,0.93,3.22,1.86,4.83,2.79c0.39,0.23,1.03,0.23,1.42,0c1.53-0.89,3.06-1.78,4.59-2.67
				C247.98,176.26,247.98,175.89,247.58,175.66"/>
			<path d="M234.08,167.86c-1.61-0.93-3.22-1.86-4.83-2.79c-0.39-0.23-1.03-0.23-1.42,0c-1.53,0.89-3.06,1.78-4.59,2.67
				c-0.39,0.23-0.39,0.59,0,0.82c1.61,0.93,3.22,1.86,4.83,2.79c0.39,0.23,1.03,0.23,1.42,0c1.53-0.89,3.06-1.78,4.59-2.67
				C234.47,168.46,234.47,168.09,234.08,167.86"/>
			<path d="M232.65,165.61c1.53-0.89,3.06-1.78,4.59-2.67c0.39-0.23,0.39-0.59-0.01-0.82c-1.61-0.93-3.22-1.86-4.83-2.79
				c-0.39-0.23-1.03-0.23-1.42,0c-1.53,0.89-3.06,1.78-4.59,2.67c-0.39,0.23-0.39,0.59,0,0.82c1.61,0.93,3.22,1.86,4.83,2.79
				C231.62,165.83,232.26,165.83,232.65,165.61"/>
			<path d="M219.14,157.81c1.53-0.89,3.06-1.78,4.59-2.67c0.39-0.23,0.39-0.59-0.01-0.82c-1.61-0.93-3.22-1.86-4.83-2.79
				c-0.39-0.23-1.03-0.23-1.42,0c-1.53,0.89-3.06,1.78-4.59,2.67c-0.39,0.23-0.39,0.59,0.01,0.82c1.61,0.93,3.22,1.86,4.83,2.79
				C218.12,158.04,218.75,158.04,219.14,157.81"/>
			<path d="M226.55,179.62c-1.53,0.89-3.06,1.78-4.59,2.67c-0.39,0.23-0.39,0.59,0,0.82c1.61,0.93,3.22,1.86,4.83,2.79
				c0.39,0.23,1.03,0.23,1.42,0c1.53-0.89,3.06-1.78,4.59-2.67c0.39-0.23,0.39-0.59,0-0.82c-1.61-0.93-3.22-1.86-4.83-2.79
				C227.58,179.39,226.94,179.39,226.55,179.62"/>
			<path d="M192.78,160.12c-1.53,0.89-3.06,1.78-4.59,2.67c-0.39,0.23-0.39,0.59,0,0.82c1.61,0.93,3.22,1.86,4.83,2.79
				c0.39,0.23,1.03,0.23,1.42,0c1.53-0.89,3.06-1.78,4.59-2.67c0.39-0.23,0.39-0.59,0-0.82c-1.61-0.93-3.22-1.86-4.83-2.79
				C193.81,159.9,193.18,159.9,192.78,160.12"/>
			<path d="M177.91,150.02c1.61,0.93,3.22,1.86,4.83,2.79c0.39,0.23,1.03,0.23,1.42,0c1.53-0.89,3.06-1.78,4.59-2.67
				c0.39-0.23,0.39-0.59,0-0.82c-1.61-0.93-3.22-1.86-4.83-2.79c-0.39-0.23-1.03-0.23-1.42,0c-1.53,0.89-3.06,1.78-4.59,2.67
				C177.52,149.42,177.52,149.79,177.91,150.02"/>
			<path d="M218.43,173.41c1.61,0.93,3.22,1.86,4.83,2.79c0.39,0.23,1.03,0.23,1.42,0c1.53-0.89,3.06-1.78,4.59-2.67
				c0.39-0.23,0.39-0.59-0.01-0.82c-1.61-0.93-3.22-1.86-4.83-2.79c-0.39-0.23-1.03-0.23-1.42,0c-1.53,0.89-3.06,1.78-4.59,2.67
				C218.04,172.82,218.04,173.19,218.43,173.41"/>
			<path d="M238.69,185.11c1.61,0.93,3.22,1.86,4.83,2.79c0.39,0.23,1.03,0.23,1.42,0c1.53-0.89,3.06-1.78,4.59-2.67
				c0.39-0.23,0.39-0.59-0.01-0.82c-1.61-0.93-3.22-1.86-4.83-2.79c-0.39-0.23-1.03-0.23-1.42,0c-1.53,0.89-3.06,1.78-4.59,2.67
				C238.3,184.52,238.3,184.88,238.69,185.11"/>
			<path d="M204.92,165.62c1.61,0.93,3.22,1.86,4.83,2.79c0.39,0.23,1.03,0.23,1.42,0c1.53-0.89,3.06-1.78,4.59-2.67
				c0.39-0.23,0.39-0.59-0.01-0.82c-1.61-0.93-3.22-1.86-4.83-2.79c-0.39-0.23-1.03-0.23-1.42,0c-1.53,0.89-3.06,1.78-4.59,2.67
				C204.53,165.02,204.53,165.39,204.92,165.62"/>
			<path d="M227.32,163.97c-1.61-0.93-3.22-1.86-4.83-2.79c-0.39-0.23-1.03-0.23-1.42,0c-1.53,0.89-3.06,1.78-4.59,2.67
				c-0.39,0.23-0.39,0.59,0,0.82c1.61,0.93,3.22,1.86,4.83,2.79c0.39,0.23,1.03,0.23,1.42,0c1.53-0.89,3.06-1.78,4.59-2.67
				C227.72,164.56,227.72,164.19,227.32,163.97"/>
			<path d="M193.56,144.47c-1.61-0.93-3.22-1.86-4.83-2.79c-0.39-0.23-1.03-0.23-1.42,0c-1.53,0.89-3.06,1.78-4.59,2.67
				c-0.39,0.23-0.39,0.59,0,0.82c1.61,0.93,3.22,1.86,4.83,2.79c0.39,0.23,1.03,0.23,1.42,0c1.53-0.89,3.06-1.78,4.59-2.67
				C193.95,145.06,193.95,144.7,193.56,144.47"/>
			<path d="M254.34,179.56c-1.61-0.93-3.22-1.86-4.83-2.79c-0.39-0.23-1.03-0.23-1.42,0c-1.53,0.89-3.06,1.78-4.59,2.67
				c-0.39,0.23-0.39,0.59,0,0.82c1.61,0.93,3.22,1.86,4.83,2.79c0.39,0.23,1.03,0.23,1.42,0c1.53-0.89,3.06-1.78,4.59-2.67
				C254.73,180.16,254.73,179.79,254.34,179.56"/>
			<path d="M212.39,153.91c1.53-0.89,3.06-1.78,4.59-2.67c0.39-0.23,0.39-0.59,0-0.82c-1.61-0.93-3.22-1.86-4.83-2.79
				c-0.39-0.23-1.03-0.23-1.42,0c-1.53,0.89-3.06,1.78-4.59,2.67c-0.39,0.23-0.39,0.59,0.01,0.82c1.61,0.93,3.22,1.86,4.83,2.79
				C211.36,154.14,212,154.14,212.39,153.91"/>
			<path d="M223.24,190.59c1.53-0.89,3.06-1.78,4.59-2.67c0.39-0.23,0.39-0.59,0-0.82c-1.61-0.93-3.22-1.86-4.83-2.79
				c-0.39-0.23-1.03-0.23-1.42,0c-1.53,0.89-3.06,1.78-4.59,2.67c-0.39,0.23-0.39,0.59,0,0.82c1.61,0.93,3.22,1.86,4.83,2.79
				C222.21,190.82,222.85,190.82,223.24,190.59"/>
			<path d="M179.12,135.52c1.61,0.93,3.22,1.86,4.83,2.79c0.39,0.23,1.03,0.23,1.42,0c1.53-0.89,3.06-1.78,4.59-2.67
				c0.39-0.23,0.39-0.59,0-0.82c-1.61-0.93-3.22-1.86-4.83-2.79c-0.39-0.23-1.03-0.23-1.42,0c-1.53,0.89-3.06,1.78-4.59,2.67
				C178.73,134.93,178.73,135.3,179.12,135.52"/>
			<path d="M176.95,128.13c-1.53,0.89-3.06,1.78-4.59,2.67c-0.39,0.23-0.39,0.59,0.01,0.82c1.61,0.93,3.22,1.86,4.83,2.79
				c0.39,0.23,1.03,0.23,1.42,0c1.53-0.89,3.06-1.78,4.59-2.67c0.39-0.23,0.39-0.59,0-0.82c-1.61-0.93-3.22-1.86-4.83-2.79
				C177.98,127.91,177.34,127.91,176.95,128.13"/>
			<path d="M239.4,169.51c1.53-0.89,3.06-1.78,4.59-2.67c0.39-0.23,0.39-0.59,0-0.82c-1.61-0.93-3.22-1.86-4.83-2.79
				c-0.39-0.23-1.03-0.23-1.42,0c-1.53,0.89-3.06,1.78-4.59,2.67c-0.39,0.23-0.39,0.59,0.01,0.82c1.61,0.93,3.22,1.86,4.83,2.79
				C238.38,169.73,239.01,169.73,239.4,169.51"/>
			<path d="M246.15,173.41c1.53-0.89,3.06-1.78,4.59-2.67c0.39-0.23,0.39-0.59,0-0.82c-1.61-0.93-3.22-1.86-4.83-2.79
				c-0.39-0.23-1.03-0.23-1.42,0c-1.53,0.89-3.06,1.78-4.59,2.67c-0.39,0.23-0.39,0.59,0,0.82c1.61,0.93,3.22,1.86,4.83,2.79
				C245.13,173.63,245.76,173.63,246.15,173.41"/>
			<path d="M191.42,157.82c1.61,0.93,3.22,1.86,4.83,2.79c0.39,0.23,1.03,0.23,1.42,0c1.53-0.89,3.06-1.78,4.59-2.67
				c0.39-0.23,0.39-0.59-0.01-0.82c-1.61-0.93-3.22-1.86-4.83-2.79c-0.39-0.23-1.03-0.23-1.42,0c-1.53,0.89-3.06,1.78-4.59,2.67
				C191.02,157.22,191.02,157.59,191.42,157.82"/>
			<path d="M263.22,190.83c1.53-0.89,3.06-1.78,4.59-2.67c0.39-0.23,0.39-0.59,0-0.82c-1.61-0.93-3.22-1.86-4.83-2.79
				c-0.39-0.23-1.03-0.23-1.42,0c-1.53,0.89-3.06,1.78-4.59,2.67c-0.39,0.23-0.39,0.59,0,0.82c1.61,0.93,3.22,1.86,4.83,2.79
				C262.2,191.06,262.83,191.05,263.22,190.83"/>
			<path d="M243.5,202.29c1.53-0.89,3.06-1.78,4.59-2.67c0.39-0.23,0.39-0.59,0-0.82c-1.61-0.93-3.22-1.86-4.83-2.79
				c-0.39-0.23-1.03-0.23-1.42,0c-1.53,0.89-3.06,1.78-4.59,2.67c-0.39,0.23-0.39,0.59,0,0.82c1.61,0.93,3.22,1.86,4.83,2.79
				C242.47,202.52,243.11,202.52,243.5,202.29"/>
			<path d="M189.47,149.07c1.61,0.93,3.22,1.86,4.83,2.79c0.39,0.23,1.03,0.23,1.42,0c1.53-0.89,3.06-1.78,4.59-2.67
				c0.39-0.23,0.39-0.59,0-0.82c-1.61-0.93-3.22-1.86-4.83-2.79c-0.39-0.23-1.03-0.23-1.42,0c-1.53,0.89-3.06,1.78-4.59,2.67
				C189.08,148.47,189.08,148.84,189.47,149.07"/>
			<path d="M213.82,156.17c-1.61-0.93-3.22-1.86-4.83-2.79c-0.39-0.23-1.03-0.23-1.42,0c-1.53,0.89-3.06,1.78-4.59,2.67
				c-0.39,0.23-0.39,0.59,0,0.82c1.61,0.93,3.22,1.86,4.83,2.79c0.39,0.23,1.03,0.23,1.42,0c1.53-0.89,3.06-1.78,4.59-2.67
				C214.21,156.76,214.21,156.39,213.82,156.17"/>
			<path d="M240.83,171.76c-1.61-0.93-3.22-1.86-4.83-2.79c-0.39-0.23-1.03-0.23-1.42,0c-1.53,0.89-3.06,1.78-4.59,2.67
				c-0.39,0.23-0.39,0.59,0,0.82c1.61,0.93,3.22,1.86,4.83,2.79c0.39,0.23,1.03,0.23,1.42,0c1.53-0.89,3.06-1.78,4.59-2.67
				C241.22,172.36,241.22,171.99,240.83,171.76"/>
			<path d="M192.62,142.5c-0.39,0.23-0.39,0.59,0,0.82c1.61,0.93,3.22,1.86,4.83,2.79c0.39,0.23,1.03,0.23,1.42,0
				c1.53-0.89,3.06-1.78,4.59-2.67c0.39-0.23,0.39-0.59,0-0.82c-1.61-0.93-3.22-1.86-4.83-2.79c-0.39-0.23-1.03-0.23-1.42,0
				C195.68,140.72,194.15,141.61,192.62,142.5"/>
			<path d="M259.66,181.2c1.53-0.89,3.06-1.78,4.59-2.67c0.39-0.23,0.39-0.59,0-0.82c-1.61-0.93-3.22-1.86-4.83-2.79
				c-0.39-0.23-1.03-0.23-1.42,0c-1.53,0.89-3.06,1.78-4.59,2.67c-0.39,0.23-0.39,0.59,0,0.82c1.61,0.93,3.22,1.86,4.83,2.79
				C258.64,181.43,259.27,181.43,259.66,181.2"/>
			<path d="M225.89,161.71c1.53-0.89,3.06-1.78,4.59-2.67c0.39-0.23,0.39-0.59,0-0.82c-1.61-0.93-3.22-1.86-4.83-2.79
				c-0.39-0.23-1.03-0.23-1.42,0c-1.53,0.89-3.06,1.78-4.59,2.67c-0.39,0.23-0.39,0.59,0,0.82c1.61,0.93,3.22,1.86,4.83,2.79
				C224.87,161.93,225.5,161.93,225.89,161.71"/>
			<path d="M236.74,198.39c1.53-0.89,3.06-1.78,4.59-2.67c0.39-0.23,0.39-0.59,0-0.82c-1.61-0.93-3.22-1.86-4.83-2.79
				c-0.39-0.23-1.03-0.23-1.42,0c-1.53,0.89-3.06,1.78-4.59,2.67c-0.39,0.23-0.39,0.59,0,0.82c1.61,0.93,3.22,1.86,4.83,2.79
				C235.72,198.62,236.35,198.62,236.74,198.39"/>
			<path d="M189.25,150.43c-1.53,0.89-3.06,1.78-4.59,2.67c-0.39,0.23-0.39,0.59,0,0.82c1.61,0.93,3.22,1.86,4.83,2.79
				c0.39,0.23,1.03,0.23,1.42,0c1.53-0.89,3.06-1.78,4.59-2.67c0.39-0.23,0.39-0.59,0-0.82c-1.61-0.93-3.22-1.86-4.83-2.79
				C190.27,150.2,189.64,150.2,189.25,150.43"/>
			<path d="M198.17,161.72c1.61,0.93,3.22,1.86,4.83,2.79c0.39,0.23,1.03,0.23,1.42,0c1.53-0.89,3.06-1.78,4.59-2.67
				c0.39-0.23,0.39-0.59-0.01-0.82c-1.61-0.93-3.22-1.86-4.83-2.79c-0.39-0.23-1.03-0.23-1.42,0c-1.53,0.89-3.06,1.78-4.59,2.67
				C197.78,161.12,197.78,161.49,198.17,161.72"/>
			<path d="M211.68,169.51c1.61,0.93,3.22,1.86,4.83,2.79c0.39,0.23,1.03,0.23,1.42,0c1.53-0.89,3.06-1.78,4.59-2.67
				c0.39-0.23,0.39-0.59,0-0.82c-1.61-0.93-3.22-1.86-4.83-2.79c-0.39-0.23-1.03-0.23-1.42,0c-1.53,0.89-3.06,1.78-4.59,2.67
				C211.28,168.92,211.29,169.29,211.68,169.51"/>
			<path d="M225.18,177.31c1.61,0.93,3.22,1.86,4.83,2.79c0.39,0.23,1.03,0.23,1.42,0c1.53-0.89,3.06-1.78,4.59-2.67
				c0.39-0.23,0.39-0.59-0.01-0.82c-1.61-0.93-3.22-1.86-4.83-2.79c-0.39-0.23-1.03-0.23-1.42,0c-1.53,0.89-3.06,1.78-4.59,2.67
				C224.79,176.72,224.79,177.09,225.18,177.31"/>
			<path d="M231.94,181.21c1.61,0.93,3.22,1.86,4.83,2.79c0.39,0.23,1.03,0.23,1.42,0c1.53-0.89,3.06-1.78,4.59-2.67
				c0.39-0.23,0.39-0.59,0-0.82c-1.61-0.93-3.22-1.86-4.83-2.79c-0.39-0.23-1.03-0.23-1.42,0c-1.53,0.89-3.06,1.78-4.59,2.67
				C231.54,180.62,231.55,180.99,231.94,181.21"/>
			<path d="M175.74,142.63c-1.53,0.89-3.06,1.78-4.59,2.67c-0.39,0.23-0.39,0.59,0,0.82c1.61,0.93,3.22,1.86,4.83,2.79
				c0.39,0.23,1.03,0.23,1.42,0c1.53-0.89,3.06-1.78,4.59-2.67c0.39-0.23,0.39-0.59,0-0.82c-1.61-0.93-3.22-1.86-4.83-2.79
				C176.77,142.4,176.13,142.4,175.74,142.63"/>
			<path d="M172.52,148.43c-1.53,0.89-3.06,1.78-4.59,2.67c-0.39,0.23-0.39,0.59,0,0.82c1.59,0.92,3.17,1.83,4.76,2.75
				c0.39,0.23,1.03,0.23,1.42,0c1.53-0.89,3.06-1.78,4.59-2.67c0.36-0.21,0.4-0.54,0.07-0.78c-1.61-0.93-3.22-1.86-4.83-2.79
				C173.55,148.2,172.91,148.2,172.52,148.43"/>
			<path d="M159.04,153.53c1.53-0.89,3.06-1.78,4.59-2.67c0.39-0.23,0.39-0.59-0.01-0.82c-1.59-0.92-3.17-1.83-4.76-2.75
				c-0.39-0.23-1.03-0.23-1.42,0c-1.53,0.89-3.06,1.78-4.59,2.67c-0.39,0.23-0.39,0.59,0.01,0.82c1.59,0.92,3.17,1.83,4.76,2.75
				C158.01,153.75,158.65,153.75,159.04,153.53"/>
			<path d="M165.79,157.43c1.53-0.89,3.06-1.78,4.59-2.67c0.39-0.23,0.39-0.59,0-0.82c-1.59-0.92-3.17-1.83-4.76-2.75
				c-0.39-0.23-1.03-0.23-1.42,0c-1.53,0.89-3.06,1.78-4.59,2.67c-0.39,0.23-0.39,0.59,0.01,0.82c1.59,0.92,3.17,1.83,4.76,2.75
				C164.77,157.65,165.4,157.65,165.79,157.43"/>
			<path d="M152.28,149.63c1.53-0.89,3.06-1.78,4.59-2.67c0.39-0.23,0.39-0.59,0-0.82c-1.59-0.92-3.17-1.83-4.76-2.75
				c-0.39-0.23-1.03-0.23-1.42,0c-1.53,0.89-3.06,1.78-4.59,2.67c-0.39,0.23-0.39,0.59,0.01,0.82c1.59,0.92,3.17,1.83,4.76,2.75
				C151.26,149.86,151.89,149.86,152.28,149.63"/>
			<path d="M180.24,126.23c-0.47,0.27-0.94,0.55-1.41,0.82c-0.39,0.23-0.39,0.59,0,0.82c2.74,1.58,5.47,3.16,8.21,4.74
				c0.39,0.23,1.03,0.23,1.42,0c0.47-0.27,0.94-0.55,1.41-0.82c0.39-0.23,0.39-0.59,0-0.82c-2.74-1.58-5.47-3.16-8.21-4.74
				C181.26,126,180.63,126,180.24,126.23"/>
			<path d="M203.84,139.85c-0.47,0.27-0.94,0.55-1.41,0.82c-0.39,0.23-0.39,0.59,0,0.82c1.61,0.93,3.22,1.86,4.83,2.79
				c0.39,0.23,1.03,0.23,1.42,0c0.47-0.27,0.94-0.55,1.41-0.82c0.39-0.23,0.39-0.59,0-0.82c-1.61-0.93-3.22-1.86-4.83-2.79
				C204.86,139.63,204.23,139.62,203.84,139.85"/>
			<path d="M230.85,155.45c-0.47,0.27-0.94,0.55-1.41,0.82c-0.39,0.23-0.39,0.59,0,0.82c1.61,0.93,3.22,1.86,4.83,2.79
				c0.39,0.23,1.03,0.23,1.42,0c0.47-0.27,0.94-0.55,1.41-0.82c0.39-0.23,0.39-0.59-0.01-0.82c-1.61-0.93-3.22-1.86-4.83-2.79
				C231.88,155.22,231.24,155.22,230.85,155.45"/>
			<path d="M217.35,147.65c-0.47,0.27-0.94,0.55-1.41,0.82c-0.39,0.23-0.39,0.59,0,0.82c1.61,0.93,3.22,1.86,4.83,2.79
				c0.39,0.23,1.03,0.23,1.42,0c0.47-0.27,0.94-0.55,1.41-0.82c0.39-0.23,0.39-0.59-0.01-0.82c-1.61-0.93-3.22-1.86-4.83-2.79
				C218.37,147.42,217.74,147.42,217.35,147.65"/>
			<path d="M257.87,171.05c-0.47,0.27-0.94,0.55-1.41,0.82c-0.39,0.23-0.39,0.59,0,0.82c1.61,0.93,3.22,1.86,4.83,2.79
				c0.39,0.23,1.03,0.23,1.42,0c0.47-0.27,0.94-0.55,1.41-0.82c0.39-0.23,0.39-0.59-0.01-0.82c-1.61-0.93-3.22-1.86-4.83-2.79
				C258.89,170.82,258.26,170.82,257.87,171.05"/>
			<path d="M244.36,163.25c-0.47,0.27-0.94,0.55-1.41,0.82c-0.39,0.23-0.39,0.59,0,0.82c1.61,0.93,3.22,1.86,4.83,2.79
				c0.39,0.23,1.03,0.23,1.42,0c0.47-0.27,0.94-0.55,1.41-0.82c0.39-0.23,0.39-0.59-0.01-0.82c-1.61-0.93-3.22-1.86-4.83-2.79
				C245.39,163.02,244.75,163.02,244.36,163.25"/>
			<path d="M251.11,167.15c-0.47,0.27-0.94,0.55-1.41,0.82c-0.39,0.23-0.39,0.59,0,0.82c1.61,0.93,3.22,1.86,4.83,2.79
				c0.39,0.23,1.03,0.23,1.42,0c0.47-0.27,0.94-0.55,1.41-0.82c0.39-0.23,0.39-0.59,0-0.82c-1.61-0.93-3.22-1.86-4.83-2.79
				C252.14,166.92,251.5,166.92,251.11,167.15"/>
			<path d="M197.09,135.95c-0.47,0.27-0.94,0.55-1.41,0.82c-0.39,0.23-0.39,0.59,0,0.82c1.61,0.93,3.22,1.86,4.83,2.79
				c0.39,0.23,1.03,0.23,1.42,0c0.47-0.27,0.94-0.55,1.41-0.82c0.39-0.23,0.39-0.59,0-0.82c-1.61-0.93-3.22-1.86-4.83-2.79
				C198.11,135.73,197.48,135.73,197.09,135.95"/>
			<path d="M224.1,151.55c-0.47,0.27-0.94,0.55-1.41,0.82c-0.39,0.23-0.39,0.59,0,0.82c1.61,0.93,3.22,1.86,4.83,2.79
				c0.39,0.23,1.03,0.23,1.42,0c0.47-0.27,0.94-0.55,1.41-0.82c0.39-0.23,0.39-0.59,0-0.82c-1.61-0.93-3.22-1.86-4.83-2.79
				C225.12,151.32,224.49,151.32,224.1,151.55"/>
			<path d="M190.33,132.05c-0.47,0.27-0.94,0.55-1.41,0.82c-0.39,0.23-0.39,0.59,0,0.82c1.61,0.93,3.22,1.86,4.83,2.79
				c0.39,0.23,1.03,0.23,1.42,0c0.47-0.27,0.94-0.55,1.41-0.82c0.39-0.23,0.39-0.59,0-0.82c-1.61-0.93-3.22-1.86-4.83-2.79
				C191.36,131.83,190.72,131.83,190.33,132.05"/>
			<path d="M210.59,143.75c-0.47,0.27-0.94,0.55-1.41,0.82c-0.39,0.23-0.39,0.59,0,0.82c1.61,0.93,3.22,1.86,4.83,2.79
				c0.39,0.23,1.03,0.23,1.42,0c0.47-0.27,0.94-0.55,1.41-0.82c0.39-0.23,0.39-0.59,0-0.82c-1.61-0.93-3.22-1.86-4.83-2.79
				C211.62,143.52,210.98,143.52,210.59,143.75"/>
			<path d="M276.22,183.28c0.19-0.11,1.2-0.69,1.41-0.82c0.39-0.23,0.39-0.59,0-0.82c-1.61-0.93-3.22-1.86-4.83-2.79
				c-0.39-0.23-1.03-0.23-1.42,0c-0.47,0.27-0.94,0.55-1.41,0.82c-0.39,0.23-0.39,0.59,0,0.82c1.61,0.93,3.22,1.86,4.83,2.79
				C275.19,183.5,275.83,183.5,276.22,183.28"/>
			<path d="M237.61,159.35c-0.47,0.27-0.94,0.55-1.41,0.82c-0.39,0.23-0.39,0.59,0,0.82c1.61,0.93,3.22,1.86,4.83,2.79
				c0.39,0.23,1.03,0.23,1.42,0c0.47-0.27,0.94-0.55,1.41-0.82c0.39-0.23,0.39-0.59,0-0.82c-1.61-0.93-3.22-1.86-4.83-2.79
				C238.63,159.12,238,159.12,237.61,159.35"/>
			<path d="M264.62,174.94c-0.47,0.27-0.94,0.55-1.41,0.82c-0.39,0.23-0.39,0.59,0,0.82c1.61,0.93,3.22,1.86,4.83,2.79
				c0.39,0.23,1.03,0.23,1.42,0c0.47-0.27,0.94-0.55,1.41-0.82c0.39-0.23,0.39-0.59,0-0.82c-1.61-0.93-3.22-1.86-4.83-2.79
				C265.65,174.72,265.01,174.72,264.62,174.94"/>
		</g>
	</g>
	<g>
		<ellipse transform="matrix(0.5025 -0.8646 0.8646 0.5025 -18.7362 334.7608)" cx="281.49" cy="183.66" rx="1.16" ry="0.67"/>
	</g>
</g>
<g id="object">
	<circle id="sphere" class="st5" cx="147.1" cy="63.01" r="27.4"/>
	<g id="cube">
		<path class="st6" d="M142.7,73.12l-27.76-10.06c-0.19-0.07-0.4-0.07-0.6,0L87.1,73.4c-0.34,0.13-0.56,0.45-0.55,0.81l0.21,26.67
			c0,0.32,0.18,0.61,0.46,0.75l26.57,13.88c0.25,0.13,0.56,0.13,0.81-0.01l28.23-15.54c0.27-0.15,0.44-0.44,0.44-0.75V73.93
			C143.27,73.57,143.04,73.24,142.7,73.12z"/>
		<path class="st7" d="M114.73,84.97l27.36-10.89c0.56-0.22,1.17,0.19,1.17,0.8v24.61c0,0.31-0.17,0.6-0.45,0.75l-27.36,14.8
			c-0.57,0.31-1.27-0.1-1.27-0.75V85.76C114.19,85.41,114.41,85.1,114.73,84.97z"/>
	</g>
	<path id="cone" class="st8" d="M133.15,114.89c9.03,17.85,40.56,11.3,42.94-0.33c0.12-0.58,0.06-1.17-0.15-1.72
		c-2.33-6.02-18.44-47.66-21.17-54.71c-0.14-0.36-0.65-0.36-0.79,0c-2.67,6.89-18.09,46.76-20.98,54.23
		C132.69,113.19,132.75,114.1,133.15,114.89z"/>
</g>
<g id="neural">
	<line class="st9" x1="244.69" y1="61.31" x2="260.45" y2="61.57"/>
	<line class="st9" x1="244.55" y1="64.36" x2="261.11" y2="77.73"/>
	<line class="st9" x1="243.81" y1="66.62" x2="261.01" y2="96.28"/>
	<line class="st9" x1="242.05" y1="68.65" x2="261.17" y2="114.14"/>
	<line class="st9" x1="243.35" y1="76.48" x2="260.57" y2="64.26"/>
	<line class="st9" x1="244.59" y1="79.74" x2="260.47" y2="80.43"/>
	<line class="st9" x1="244.32" y1="83.69" x2="260.5" y2="98.48"/>
	<line class="st9" x1="242.49" y1="86.65" x2="260.49" y2="116.84"/>
	<line class="st9" x1="243.18" y1="94.59" x2="261.5" y2="66.94"/>
	<line class="st9" x1="244.44" y1="97.3" x2="260.9" y2="83.96"/>
	<line class="st9" x1="244.67" y1="100.11" x2="260.67" y2="101.44"/>
	<line class="st9" x1="243.85" y1="103.21" x2="260.82" y2="120.26"/>
	<line class="st9" x1="269.06" y1="62.77" x2="287.45" y2="72.58"/>
	<line class="st9" x1="268.87" y1="82.95" x2="287.14" y2="92.81"/>
	<line class="st9" x1="268.91" y1="100.6" x2="287.15" y2="111.05"/>
	<line class="st9" x1="266.95" y1="122.8" x2="287.73" y2="133.16"/>
	<line class="st9" x1="268.71" y1="65.28" x2="287.54" y2="90.63"/>
	<line class="st9" x1="267.5" y1="67.68" x2="287.45" y2="109.25"/>
	<line class="st9" x1="266.41" y1="68.65" x2="287.79" y2="125.99"/>
	<line class="st9" x1="269.03" y1="80.37" x2="287.15" y2="74.41"/>
	<line class="st9" x1="268.26" y1="84.79" x2="287.13" y2="113.95"/>
	<line class="st9" x1="266.89" y1="86.63" x2="287.21" y2="128.7"/>
	<line class="st9" x1="267.88" y1="103.3" x2="287.13" y2="131.08"/>
	<line class="st9" x1="269.04" y1="98.9" x2="287.13" y2="94.79"/>
	<line class="st9" x1="268.69" y1="96.84" x2="287.35" y2="77.01"/>
	<line class="st9" x1="268" y1="113.5" x2="288.29" y2="79.35"/>
	<line class="st9" x1="268.89" y1="115.92" x2="287.84" y2="96.84"/>
	<line class="st9" x1="268.9" y1="119.39" x2="288.13" y2="115.76"/>
	<line class="st9" x1="295.7" y1="75.81" x2="311.05" y2="96.84"/>
	<line class="st9" x1="295.74" y1="93.34" x2="310.67" y2="99.43"/>
	<line class="st9" x1="295.64" y1="110.3" x2="310.97" y2="101.75"/>
	<line class="st9" x1="295.57" y1="131.68" x2="312.28" y2="122.64"/>
	<line class="st9" x1="295.06" y1="126.49" x2="311.63" y2="103.44"/>
	<line class="st9" x1="294.8" y1="78.99" x2="312.06" y2="113.01"/>
	<line class="st9" x1="295.35" y1="96" x2="310.89" y2="115.67"/>
	<line class="st9" x1="295.6" y1="113.25" x2="310.74" y2="118.76"/>
	<ellipse class="st10" cx="240.39" cy="62.77" rx="4.31" ry="6.37"/>
	<ellipse class="st10" cx="264.75" cy="81.1" rx="4.31" ry="6.37"/>
	<ellipse class="st10" cx="264.75" cy="99.43" rx="4.31" ry="6.37"/>
	<ellipse class="st10" cx="264.75" cy="117.68" rx="4.31" ry="6.37"/>
	<ellipse class="st10" cx="264.75" cy="62.77" rx="4.31" ry="6.37"/>
	<ellipse class="st10" cx="291.43" cy="93.34" rx="4.31" ry="6.37"/>
	<ellipse class="st10" cx="291.43" cy="111.68" rx="4.31" ry="6.37"/>
	<ellipse class="st10" cx="291.43" cy="129.92" rx="4.31" ry="6.37"/>
	<ellipse class="st10" cx="291.43" cy="75.01" rx="4.31" ry="6.37"/>
	<ellipse class="st10" cx="314.98" cy="99.43" rx="4.31" ry="6.37"/>
	<ellipse class="st10" cx="314.98" cy="117.68" rx="4.31" ry="6.37"/>
	<ellipse class="st10" cx="240.39" cy="81.1" rx="4.31" ry="6.37"/>
	<ellipse class="st10" cx="240.39" cy="99.43" rx="4.31" ry="6.37"/>
	<ellipse class="st11" cx="239.73" cy="62.96" rx="4.31" ry="6.37"/>
	<ellipse class="st5" cx="264.09" cy="81.3" rx="4.31" ry="6.37"/>
	<ellipse class="st11" cx="264.09" cy="99.63" rx="4.31" ry="6.37"/>
	<ellipse class="st5" cx="264.09" cy="117.87" rx="4.31" ry="6.37"/>
	<ellipse class="st12" cx="264.09" cy="62.96" rx="4.31" ry="6.37"/>
	<ellipse class="st11" cx="290.78" cy="93.54" rx="4.31" ry="6.37"/>
	<ellipse class="st5" cx="290.78" cy="111.87" rx="4.31" ry="6.37"/>
	<ellipse class="st7" cx="290.78" cy="130.11" rx="4.31" ry="6.37"/>
	<ellipse class="st13" cx="290.78" cy="75.21" rx="4.31" ry="6.37"/>
	<ellipse class="st14" cx="314.32" cy="99.63" rx="4.31" ry="6.37"/>
	<ellipse class="st15" cx="314.32" cy="117.87" rx="4.31" ry="6.37"/>
	<ellipse class="st11" cx="239.73" cy="81.3" rx="4.31" ry="6.37"/>
	<ellipse class="st11" cx="239.73" cy="99.63" rx="4.31" ry="6.37"/>
</g>
<g id="data">
	<path class="st7" d="M240.3,232.17c0,0-3.97,2.48-3.97,6.57c0.03,1.48,0.19,7.2,0.19,7.2s0,1.55,1.88,3.52
		c2.14,2.83,12.14,5.46,23.2,5.46c6.04-0.21,12.46-1.68,14.2-2.39s5.72-3.11,6.55-6.14c0.28-1.82,0.13-4.48,0.13-6.89
		c0-0.06,0-0.12-0.01-0.18c-0.13-4.27-4.15-7.14-4.15-7.14"/>
	<ellipse class="st10" cx="259.22" cy="236.5" rx="21.28" ry="9.44"/>
	<path class="st13" d="M240.09,218.83c0,0-3.97,2.48-3.97,6.57c0.03,1.48,0.19,7.2,0.19,7.2s0,1.55,1.88,3.52
		c2.14,2.83,12.14,5.46,23.2,5.46c6.04-0.21,12.46-1.68,14.2-2.39s5.72-3.11,6.55-6.14c0.28-1.82,0.13-4.48,0.13-6.89
		c0-0.06,0-0.12-0.01-0.18c-0.13-4.27-4.15-7.14-4.15-7.14"/>
	<ellipse class="st10" cx="259" cy="223.16" rx="21.28" ry="9.44"/>
	<path class="st5" d="M198.82,243.33c0,0-3.97,2.48-3.97,6.57c0.03,1.48,0.19,7.2,0.19,7.2s0,1.55,1.88,3.52
		c2.14,2.83,12.14,5.46,23.2,5.46c6.04-0.21,12.46-1.68,14.2-2.39c1.74-0.71,5.72-3.11,6.55-6.14c0.28-1.82,0.13-4.48,0.13-6.89
		c0-0.06,0-0.12-0.01-0.18c-0.13-4.27-4.15-7.14-4.15-7.14"/>
	<ellipse class="st10" cx="217.73" cy="247.66" rx="21.28" ry="9.44"/>
	<path class="st7" d="M198.6,229.99c0,0-3.97,2.48-3.97,6.57c0.03,1.48,0.19,7.2,0.19,7.2s0,1.55,1.88,3.52
		c2.14,2.83,12.14,5.46,23.2,5.46c6.04-0.21,12.46-1.68,14.2-2.39c1.74-0.71,5.72-3.11,6.55-6.14c0.28-1.82,0.13-4.48,0.13-6.89
		c0-0.06,0-0.12-0.01-0.18c-0.13-4.27-4.15-7.14-4.15-7.14"/>
	<ellipse class="st10" cx="217.51" cy="234.32" rx="21.28" ry="9.44"/>
	<path class="st13" d="M198.67,216.22c0,0-3.97,2.48-3.97,6.57c0.03,1.48,0.19,7.2,0.19,7.2s0,1.55,1.88,3.52
		c2.14,2.83,12.14,5.46,23.2,5.46c6.04-0.21,12.46-1.68,14.2-2.39c1.74-0.71,5.72-3.11,6.55-6.14c0.28-1.82,0.13-4.48,0.13-6.89
		c0-0.06,0-0.12-0.01-0.18c-0.13-4.27-4.15-7.14-4.15-7.14"/>
	<ellipse class="st10" cx="217.58" cy="220.54" rx="21.28" ry="9.44"/>
	<path class="st6" d="M198.45,202.88c0,0-3.97,2.48-3.97,6.57c0.03,1.48,0.19,7.2,0.19,7.2s0,1.55,1.88,3.52
		c2.14,2.83,12.14,5.46,23.2,5.46c6.04-0.21,12.46-1.68,14.2-2.39c1.74-0.71,5.72-3.11,6.55-6.14c0.28-1.82,0.13-4.48,0.13-6.89
		c0-0.06,0-0.12-0.01-0.18c-0.13-4.27-4.15-7.14-4.15-7.14"/>
	<ellipse class="st10" cx="217.37" cy="207.2" rx="21.28" ry="9.44"/>
</g>
<g id="web">
	<path d="M44.4,111.6l79.28,47.5c1.05,0.63,1.69,1.76,1.69,2.98v53.68c0,2.7-2.95,4.37-5.27,2.98l-76.18-45.64
		c-1.05-0.63-1.69-1.76-1.69-2.98v-57.3C42.23,111.72,43.44,111.03,44.4,111.6z"/>
	<path class="st11" d="M43.53,112.29l79.28,47.5c1.05,0.63,1.69,1.76,1.69,2.98v53.68c0,2.7-2.95,4.37-5.27,2.98L43.05,173.8
		c-1.05-0.63-1.69-1.76-1.69-2.98v-57.3C41.36,112.41,42.58,111.72,43.53,112.29z"/>
	<ellipse cx="116.09" cy="159.71" rx="0.83" ry="1.1"/>
	<ellipse cx="118.49" cy="161.02" rx="0.83" ry="1.1"/>
	<ellipse cx="121.02" cy="162.36" rx="0.83" ry="1.1"/>
	<line class="st16" x1="45.47" y1="118.68" x2="109.19" y2="156.37"/>
	<path class="st17" d="M60.66,169.02c-3.96-6.75-9.36-14.93-9.36-14.93s7.11-1.49,13.19-2.72"/>
	<line class="st18" x1="65.72" y1="171.23" x2="83.44" y2="160.48"/>
	<polyline class="st17" points="90.51,165.97 99.7,179.13 90.51,186.05 	"/>
</g>
</svg>
